<?xml version="1.0" encoding="UTF-8"?>
<svg id="Capa_1" xmlns="http://www.w3.org/2000/svg" version="1.1" xmlns:xlink="http://www.w3.org/1999/xlink" viewBox="0 0 1200 630">
  <!-- Generator: Adobe Illustrator 29.7.1, SVG Export Plug-In . SVG Version: 2.1.1 Build 8)  -->
  <defs>
    <style>
      .st0, .st1, .st2 {
        fill: #fff;
      }

      .st0, .st3 {
        font-size: 58.1px;
      }

      .st0, .st3, .st4 {
        font-family: Acto-Black, Acto;
        font-weight: 800;
      }

      .st1 {
        letter-spacing: 0em;
      }

      .st1, .st5 {
        font-size: 40.2px;
      }

      .st1, .st5, .st6, .st7 {
        font-family: Acto-SemiBold, Acto;
        font-weight: 600;
      }

      .st8, .st4 {
        fill: #5bd26f;
      }

      .st9 {
        fill: #383838;
      }

      .st10 {
        font-family: Acto-Light, Acto;
      }

      .st10, .st11 {
        font-size: 23.6px;
        font-weight: 300;
      }

      .st11 {
        font-family: Acto-LightItalic, Acto;
        font-style: italic;
      }

      .st6 {
        font-size: 59.8px;
      }

      .st7 {
        font-size: 27.2px;
      }

      .st12 {
        fill: url(#Degradado_sin_nombre);
      }

      .st4 {
        font-size: 77.9px;
      }
    </style>
    <linearGradient id="Degradado_sin_nombre" data-name="Degradado sin nombre" x1="-358.7" y1="855.6" x2="-357.7" y2="854.6" gradientTransform="translate(430441 539056) scale(1200 -630)" gradientUnits="userSpaceOnUse">
      <stop offset="0" stop-color="#5b00ea"/>
      <stop offset=".5" stop-color="#3b82f6"/>
      <stop offset="1" stop-color="#10b981"/>
    </linearGradient>
  </defs>
  <rect class="st12" width="1200" height="630"/>
  <image width="1920" height="1080" transform="translate(-1 -74.8) scale(.7)" xlink:href="../../../../../LANDING PAGE PHORENCIAL/public/hero/hero-bg-desktop.jpg"/>
  <image width="3001" height="4501" transform="translate(615.8 -75) scale(.2)" xlink:href="og-image-1.png"/>
  <text transform="translate(116.2 143.3) scale(1.1 1)"><tspan class="st2"><tspan class="st3" x="0" y="0">Si cobrás tu sueldo </tspan><tspan class="st5" x="487.1" y="0">en</tspan></tspan><tspan><tspan class="st4" x="0" y="72.1">Banco Formosa</tspan><tspan class="st1" x="523.9" y="72.1">,</tspan></tspan><tspan class="st2"><tspan class="st6" x="0" y="127.4">accedé al</tspan><tspan class="st3" x="241" y="127.4" xml:space="preserve"> crédito</tspan></tspan><tspan class="st0"><tspan x="0" y="194.4">inmediato</tspan></tspan></text>
  <g>
    <rect class="st2" x="110.4" y="404.8" width="526.9" height="130.9" rx="46" ry="46"/>
    <g>
      <path class="st8" d="M595.9,454.6v5.3c-2.1,14.8-12,23.8-27.4,22.4-28.5-2.6-29.7-44.2-1.9-49.6.7-.1,1.5-.5,1.6-.5,15-1.6,25.6,8.1,27.8,22.4ZM572.9,440.7h-3.7s0,3.2,0,3.2c-4.9.6-9,3.9-7.9,9.3,1.3,6.4,13.6,4.5,14.8,8.2.4,6.1-8.5,5.3-11.5,1.8l-2.8,2.4c-.3,1.5,5.8,4.5,7.4,4-.4,2.9.4,4.9,3.5,3.2l.2-3.2c5.8.3,9.5-4.6,7.8-10.2s-13.7-4.1-14.6-7.3c-1.8-5.9,8.8-5.1,11.5-1.8.8.2,2.7-1.8,2.3-2.8-1.6-2.2-4.4-2.8-6.8-3.6v-3.1Z"/>
      <path class="st8" d="M566.5,495.2c-6.3-.8-17.3-2.8-21.4-8.3-2.8-3.8-.8-9.6,3.5-11.5,10.3,15.3,34.4,15,45.5.6,5.9,1.1,6.6,8.8,2.3,12.5-4.1,3.5-14.4,6.4-19.8,6.7-3.4.2-6.8-.1-10.1,0Z"/>
      <path class="st8" d="M599.1,491.4c1.4,10.2-6.8,14.2-15.4,15.9-8.9,1.8-17.5,1.5-26.3-.6-7.8-1.9-15-5.9-13.1-15.2,9.2,9.7,27,10.7,39.4,7.9,6.2-1.4,9-3.1,13.8-7.1.5-.5.7-1,1.6-.8Z"/>
      <path class="st8" d="M576.7,495.2c-.5.9-2,.5-2.9.5-2.7,0-4.7-.2-7.2-.5,3.4-.1,6.8.2,10.1,0Z"/>
      <path class="st8" d="M595.9,459.9v-5.3c.2,1.1.7,1.7.6,3.5,0,1-.5,1.6-.6,1.8Z"/>
      <path class="st8" d="M568.1,432.2c0,0-.9.4-1.6.5l.4-.4h1.2Z"/>
    </g>
    <text class="st9" transform="translate(154.4 448.1) scale(1.1 1)"><tspan class="st7" x="0" y="0">Pedí tu crédito en minutos</tspan><tspan class="st10" x="303" y="0"> </tspan><tspan class="st10"><tspan x="0" y="28.3">y financiá el valor de tu vehículo </tspan></tspan><tspan class="st11"><tspan x="0" y="56.7">sin complicaciones.</tspan></tspan></text>
  </g>
</svg>





