<?xml version="1.0" encoding="UTF-8"?>
<svg id="Capa_1" xmlns="http://www.w3.org/2000/svg" version="1.1" xmlns:xlink="http://www.w3.org/1999/xlink" viewBox="0 0 1200 600">
  <!-- Generator: Adobe Illustrator 29.7.1, SVG Export Plug-In . SVG Version: 2.1.1 Build 8)  -->
  <defs>
    <style>
      .st0, .st1 {
        fill: #5bd26f;
      }

      .st2, .st3, .st4 {
        fill: #fff;
      }

      .st5 {
        fill: #383838;
      }

      .st6 {
        font-family: Acto-LightItalic, Acto;
        font-style: italic;
      }

      .st6, .st7, .st8 {
        font-size: 21px;
        font-weight: 300;
      }

      .st3, .st9, .st10, .st11 {
        font-family: Acto-SemiBold, Acto;
        font-weight: 600;
      }

      .st3, .st11 {
        font-size: 35.8px;
      }

      .st12, .st1, .st4 {
        font-family: Acto-Black, Acto;
        font-weight: 800;
      }

      .st12, .st4 {
        font-size: 51.7px;
      }

      .st1 {
        font-size: 69.3px;
      }

      .st9 {
        font-size: 24.2px;
      }

      .st7 {
        letter-spacing: 0em;
      }

      .st7, .st8 {
        font-family: Acto-Light, Acto;
      }

      .st10 {
        font-size: 53.2px;
      }

      .st11 {
        letter-spacing: 0em;
      }
    </style>
  </defs>
  <image width="1920" height="1080" transform="translate(0 -41.8) scale(.6)" xlink:href="../../../../../LANDING PAGE PHORENCIAL/public/hero/hero-bg-desktop.jpg"/>
  <image width="3001" height="4501" transform="translate(548.8 -42) scale(.2)" xlink:href="twitter-image-1.png"/>
  <text transform="translate(104.3 152.3) scale(1.1 1)"><tspan class="st2"><tspan class="st12" x="0" y="0">Si cobrás tu sueldo </tspan><tspan class="st11" x="433.4" y="0">en</tspan></tspan><tspan><tspan class="st1" x="0" y="64.1">Banco Formosa</tspan><tspan class="st3" x="466.2" y="64.1">,</tspan></tspan><tspan class="st2"><tspan class="st10" x="0" y="113.3">accedé al</tspan><tspan class="st12" x="214.4" y="113.3" xml:space="preserve"> crédito</tspan></tspan><tspan class="st4"><tspan x="0" y="173">inmediato</tspan></tspan></text>
  <g>
    <rect class="st2" x="99.1" y="384.9" width="468.8" height="116.5" rx="46" ry="46"/>
    <g>
      <path class="st0" d="M531.1,429.2v4.8c-1.9,13.2-10.7,21.2-24.4,19.9-25.4-2.3-26.4-39.3-1.7-44.1.6-.1,1.4-.5,1.4-.5,13.4-1.4,22.8,7.2,24.7,20ZM510.7,416.9h-3.3s0,2.8,0,2.8c-4.4.5-8,3.5-7,8.2,1.2,5.7,12.1,4,13.1,7.3.4,5.5-7.6,4.8-10.2,1.6l-2.5,2.2c-.3,1.3,5.2,4,6.6,3.5-.3,2.6.3,4.3,3.1,2.9l.2-2.9c5.1.3,8.5-4.1,6.9-9.1s-12.2-3.6-13-6.5c-1.6-5.3,7.8-4.6,10.2-1.6.7.2,2.4-1.6,2-2.5-1.4-2-3.9-2.5-6.1-3.2v-2.8Z"/>
      <path class="st0" d="M505,465.3c-5.6-.7-15.4-2.5-19-7.4-2.5-3.4-.7-8.6,3.1-10.2,9.2,13.6,30.6,13.3,40.5.5,5.3,1,5.9,7.9,2.1,11.1-3.7,3.2-12.8,5.7-17.6,5.9-3,.2-6-.1-9,0Z"/>
      <path class="st0" d="M534,462c1.3,9-6.1,12.6-13.7,14.1-7.9,1.6-15.6,1.3-23.4-.6-6.9-1.7-13.4-5.3-11.6-13.5,8.1,8.7,24,9.5,35,7,5.5-1.3,8-2.7,12.2-6.3.5-.4.6-.9,1.4-.7Z"/>
      <path class="st0" d="M514,465.3c-.5.8-1.8.5-2.6.5-2.4,0-4.2-.2-6.4-.5,3-.1,6,.2,9,0Z"/>
      <path class="st0" d="M531.1,434v-4.8c.1,1,.6,1.6.5,3.1,0,.9-.5,1.4-.5,1.6Z"/>
      <path class="st0" d="M506.4,409.3c0,0-.8.4-1.4.5l.3-.4h1.1Z"/>
    </g>
    <text class="st5" transform="translate(138.3 423.4) scale(1.1 1)"><tspan class="st9" x="0" y="0">Pedí tu crédito en minutos</tspan><tspan class="st7" x="269.6" y="0"> </tspan><tspan class="st8"><tspan x="0" y="25.2">y financiá el valor de tu vehículo </tspan></tspan><tspan class="st6"><tspan x="0" y="50.4">sin complicaciones.</tspan></tspan></text>
  </g>
</svg>




