<?xml version="1.0" encoding="UTF-8"?><svg id="b" xmlns="http://www.w3.org/2000/svg" viewBox="0 0 316.33 280.12"><g id="c"><rect width="316.33" height="253.26" rx="46.05" ry="46.05" fill="#fff"/><path d="M74.04,60.6v5.46c-2.13,15.16-12.29,24.35-28.08,22.89-29.2-2.69-30.36-45.24-1.97-50.76.72-.14,1.55-.54,1.64-.55,15.38-1.6,26.17,8.27,28.41,22.95ZM50.54,46.39h-3.83s-.04,3.24-.04,3.24c-5.05.6-9.19,3.97-8.04,9.49,1.37,6.58,13.95,4.6,15.09,8.41.46,6.29-8.7,5.47-11.73,1.85l-2.91,2.49c-.34,1.53,5.93,4.56,7.61,4.05-.39,2.99.39,4.98,3.6,3.3l.24-3.31c5.89.36,9.73-4.75,7.95-10.41-1.72-5.49-13.98-4.17-14.96-7.44-1.83-6.08,8.96-5.23,11.74-1.87.79.18,2.73-1.85,2.32-2.86-1.64-2.25-4.48-2.89-6.99-3.7l-.06-3.22Z" fill="#5bd26f"/><path d="M43.98,102.12c-6.46-.77-17.75-2.89-21.86-8.47-2.86-3.89-.8-9.86,3.55-11.75,10.56,15.63,35.25,15.3,46.52.59,6.05,1.13,6.79,9.06,2.4,12.82-4.24,3.63-14.7,6.53-20.23,6.81-3.44.17-6.94-.13-10.38,0Z" fill="#5bd26f"/><path d="M77.31,98.3c1.48,10.41-7,14.5-15.72,16.24-9.1,1.82-17.9,1.49-26.91-.66-7.99-1.91-15.38-6.06-13.38-15.58,9.37,9.96,27.63,10.92,40.28,8.04,6.35-1.44,9.23-3.15,14.08-7.23.55-.46.71-1.04,1.64-.81Z" fill="#5bd26f"/><path d="M54.37,102.12c-.54.92-2.09.54-3,.55-2.76.03-4.8-.24-7.38-.55,3.44-.13,6.94.17,10.38,0Z" fill="#5bd26f"/><path d="M74.04,66.06v-5.46c.17,1.09.7,1.79.58,3.61-.07,1.07-.55,1.62-.58,1.85Z" fill="#5bd26f"/><path d="M45.62,37.65c-.09,0-.92.41-1.64.55l.36-.45,1.28-.09Z" fill="#5bd26f"/><path d="M54.11,156.65v12.24h-1.97v-12.24h-2.21v-1.31l2.21-.11v-1.67c0-2.54,1.18-3.52,4.06-3.52.65,0,1.53.08,2.26.19l-.18,1.26c-.71-.11-1.18-.14-1.65-.14-1.94,0-2.53.66-2.53,2.35v1.53h8.09v13.66h-1.97v-12.24h-6.12ZM61.2,151.33c.82,0,1.29.3,1.29.96s-.47,1.01-1.29,1.01-1.27-.33-1.27-1.01.47-.96,1.27-.96Z" fill="#383838"/><path d="M67.85,168.89h-1.97v-13.66h1.77l.21,1.88c1.5-1.23,3.33-2.16,5.5-2.16,2.91,0,4.38,1.48,4.38,4.4v9.53h-1.97v-9.23c0-1.72-.74-3.2-3.24-3.2-1.97,0-3.77,1.2-4.68,1.91v10.52Z" fill="#383838"/><path d="M90.3,159.19c0-1.83-1.21-2.9-3.5-2.9-1.5,0-3.24.46-4.77.98l-.41-1.28c1.91-.6,3.77-1.04,5.47-1.04,2.94,0,5.18,1.31,5.18,4.18v9.75h-1.74l-.23-1.8c-1.71,1.56-3.33,2.08-5.21,2.08-2.41,0-4.32-1.2-4.32-3.39,0-3,3.27-4.56,9.53-5v-1.58ZM90.3,161.95c-4.94.27-7.56,1.69-7.56,3.55,0,1.34,1,2.24,2.91,2.24s3.53-.85,4.65-1.94v-3.85Z" fill="#383838"/><path d="M97.92,168.89h-1.97v-13.66h1.77l.21,1.88c1.5-1.23,3.32-2.16,5.5-2.16,2.91,0,4.38,1.48,4.38,4.4v9.53h-1.97v-9.23c0-1.72-.74-3.2-3.24-3.2-1.97,0-3.77,1.2-4.68,1.91v10.52Z" fill="#383838"/><path d="M121.75,168.56c-1.09.33-2.5.6-3.79.6-4.79,0-6.91-3-6.91-7.1s2.12-7.1,6.91-7.1c1.29,0,2.71.27,3.79.6l-.29,1.37c-1.15-.33-2.21-.55-3.29-.55-3.77,0-5.06,2.62-5.06,5.68s1.29,5.68,5.06,5.68c1.09,0,2.15-.22,3.29-.55l.29,1.37Z" fill="#383838"/><path d="M125.46,151.33c.82,0,1.29.3,1.29.96s-.47,1.01-1.29,1.01-1.26-.33-1.26-1.01.47-.96,1.26-.96ZM126.46,155.23v13.66h-1.97v-13.66h1.97Z" fill="#383838"/><path d="M139.03,159.19c0-1.83-1.21-2.9-3.5-2.9-1.5,0-3.24.46-4.77.98l-.41-1.28c1.91-.6,3.77-1.04,5.47-1.04,2.94,0,5.18,1.31,5.18,4.18v9.75h-1.74l-.23-1.8c-1.71,1.56-3.33,2.08-5.21,2.08-2.41,0-4.32-1.2-4.32-3.39,0-3,3.27-4.56,9.53-5v-1.58ZM139.03,161.95c-4.94.27-7.56,1.69-7.56,3.55,0,1.34,1,2.24,2.91,2.24s3.53-.85,4.65-1.94v-3.85ZM135.29,154.14l-.79-.96,3.97-3.09.97,1.28-4.15,2.76Z" fill="#383838"/><path d="M152.47,162.36c.06,3.03,1.32,5.38,5.59,5.38,1.56,0,2.82-.16,4.18-.6l.24,1.37c-1.79.52-3.12.66-4.77.66-5.27,0-7.3-3-7.3-7.1s2.15-7.1,6.94-7.1,5.8,2.87,5.8,5.13c0,.55-.09,1.48-.29,2.27h-10.38ZM161.12,161.02c.09-.49.15-1.01.15-1.39,0-1.75-1.15-3.41-3.94-3.41-3.53,0-4.77,2.49-4.85,4.81h8.65Z" fill="#383838"/><path d="M168.36,166.43c0,.9.38,1.34,1.41,1.34.41,0,.74-.03,1.09-.11v1.34c-.62.08-1.29.16-1.76.16-2.44,0-2.71-1.39-2.71-2.57v-16.28h1.97v16.11Z" fill="#383838"/><path d="M183.78,169.02l-5.62-13.79h2.24l3.09,7.73,1.5,4.18h.06l1.47-4.18,3.15-7.73h2.12l-5.62,13.79h-2.38Z" fill="#383838"/><path d="M202.11,159.19c0-1.83-1.21-2.9-3.5-2.9-1.5,0-3.24.46-4.77.98l-.41-1.28c1.91-.6,3.77-1.04,5.47-1.04,2.94,0,5.18,1.31,5.18,4.18v9.75h-1.74l-.24-1.8c-1.71,1.56-3.32,2.08-5.21,2.08-2.41,0-4.32-1.2-4.32-3.39,0-3,3.27-4.56,9.53-5v-1.58ZM202.11,161.95c-4.94.27-7.56,1.69-7.56,3.55,0,1.34,1,2.24,2.91,2.24s3.53-.85,4.65-1.94v-3.85Z" fill="#383838"/><path d="M209.73,166.43c0,.9.38,1.34,1.41,1.34.41,0,.74-.03,1.09-.11v1.34c-.62.08-1.29.16-1.76.16-2.44,0-2.71-1.39-2.71-2.57v-16.28h1.97v16.11Z" fill="#383838"/><path d="M213.61,162.06c0-3.82,1.94-7.1,6.47-7.1s6.47,3.28,6.47,7.1-1.97,7.1-6.47,7.1-6.47-3.28-6.47-7.1ZM215.67,162.06c0,3.09,1.15,5.76,4.41,5.76s4.41-2.68,4.41-5.76-1.15-5.76-4.41-5.76-4.41,2.68-4.41,5.76Z" fill="#383838"/><path d="M231.76,168.89h-1.97v-13.66h1.77l.21,2.4h.06c1.35-1.58,3.35-2.68,5.5-2.68v1.75c-2.41,0-4.53,1.2-5.56,1.94v10.24Z" fill="#383838"/><path d="M61.12,193.9h-.06c-1.09.96-2.65,1.64-4.44,1.64-4.06,0-5.77-3.11-5.77-7.1s1.79-7.1,5.85-7.1c1.76,0,3.27.63,4.35,1.58h.06v-6.23h1.97v18.57h-1.77l-.21-1.37ZM61.12,184.17c-.68-.52-2.03-1.34-3.83-1.34-3.15,0-4.38,2.57-4.38,5.6s1.24,5.6,4.38,5.6c1.79,0,3.15-.82,3.83-1.34v-8.52Z" fill="#383838"/><path d="M68.38,188.73c.06,3.03,1.32,5.38,5.59,5.38,1.56,0,2.82-.16,4.18-.6l.24,1.37c-1.79.52-3.12.66-4.77.66-5.27,0-7.3-3-7.3-7.1s2.15-7.1,6.94-7.1,5.8,2.87,5.8,5.13c0,.55-.09,1.48-.29,2.27h-10.38ZM77.03,187.39c.09-.49.15-1.01.15-1.39,0-1.75-1.15-3.41-3.94-3.41-3.53,0-4.77,2.49-4.85,4.81h8.65Z" fill="#383838"/><path d="M91.45,183.02v9.2c0,1.48.88,1.91,1.91,1.91.41,0,1.03-.03,1.38-.11v1.34c-.62.08-1.68.16-2.15.16-2.65,0-3.12-1.58-3.12-3.14v-9.37h-2.21v-1.31l2.21-.11v-3.82h1.97v3.82h3.29v1.42h-3.29Z" fill="#383838"/><path d="M107.1,181.6h1.97v13.66h-1.76l-.21-1.99h-.06c-1.5,1.31-3.29,2.27-5.44,2.27-2.91,0-4.38-1.47-4.38-4.37v-9.56h1.97v9.23c0,1.75.71,3.2,3.24,3.2,1.97,0,3.74-1.17,4.68-1.88v-10.54Z" fill="#383838"/><path d="M123.2,195.4l-5.62-13.79h2.24l3.09,7.73,1.5,4.18h.06l1.47-4.18,3.15-7.73h2.12l-5.62,13.79h-2.38Z" fill="#383838"/><path d="M134.11,188.73c.06,3.03,1.32,5.38,5.59,5.38,1.56,0,2.82-.16,4.18-.6l.24,1.37c-1.79.52-3.12.66-4.77.66-5.27,0-7.3-3-7.3-7.1s2.15-7.1,6.94-7.1,5.8,2.87,5.8,5.13c0,.55-.09,1.48-.29,2.27h-10.38ZM142.76,187.39c.09-.49.15-1.01.15-1.39,0-1.75-1.15-3.41-3.94-3.41-3.53,0-4.77,2.49-4.85,4.81h8.65Z" fill="#383838"/><path d="M150,195.26h-1.97v-18.57h1.97v6.91h.06c1.5-1.31,3.27-2.27,5.44-2.27,2.91,0,4.38,1.48,4.38,4.4v9.53h-1.97v-9.23c0-1.72-.74-3.2-3.24-3.2-1.97,0-3.77,1.2-4.68,1.91v10.52Z" fill="#383838"/><path d="M165.54,181.6v13.66h-1.97v-13.66h1.97ZM164.45,180.51l-.79-.96,3.97-3.09.94,1.28-4.12,2.76Z" fill="#383838"/><path d="M179.48,194.93c-1.09.33-2.5.6-3.79.6-4.79,0-6.91-3-6.91-7.1s2.12-7.1,6.91-7.1c1.29,0,2.71.27,3.79.6l-.29,1.37c-1.15-.33-2.21-.55-3.29-.55-3.77,0-5.06,2.62-5.06,5.68s1.29,5.68,5.06,5.68c1.09,0,2.15-.22,3.29-.55l.29,1.37Z" fill="#383838"/><path d="M192.1,181.6h1.97v13.66h-1.76l-.21-1.99h-.06c-1.5,1.31-3.29,2.27-5.44,2.27-2.91,0-4.38-1.47-4.38-4.37v-9.56h1.97v9.23c0,1.75.71,3.2,3.24,3.2,1.97,0,3.74-1.17,4.68-1.88v-10.54Z" fill="#383838"/><path d="M199.72,192.8c0,.9.38,1.34,1.41,1.34.41,0,.74-.03,1.09-.11v1.34c-.62.08-1.29.16-1.76.16-2.44,0-2.71-1.39-2.71-2.57v-16.28h1.97v16.11Z" fill="#383838"/><path d="M203.61,188.43c0-3.82,1.94-7.1,6.47-7.1s6.47,3.28,6.47,7.1-1.97,7.1-6.47,7.1-6.47-3.28-6.47-7.1ZM205.67,188.43c0,3.09,1.15,5.76,4.41,5.76s4.41-2.68,4.41-5.76-1.15-5.76-4.41-5.76-4.41,2.68-4.41,5.76Z" fill="#383838"/><path d="M60.99,212.13c-1.32-.39-2.67-.63-3.57-.63-2,0-2.65.95-2.65,1.58,0,2.06,6,1.6,6,4.89,0,2.48-2.37,3.89-5.77,3.89-1.67,0-3.32-.16-4.72-.51l.7-1.81c1.6.46,3.02.65,3.9.65,2.27,0,2.75-1.18,2.75-1.72,0-2.09-5.89-1.51-5.89-4.94,0-2.34,2.3-3.73,5.67-3.73,1.67,0,2.85.19,4.25.53l-.65,1.78Z" fill="#383838"/><path d="M66.72,210.05l-1.75,11.59h-2.62l1.75-11.59h2.62ZM65.97,206.29c.9,0,1.42.3,1.42.97,0,.9-.65,1.34-1.77,1.34-.88,0-1.4-.32-1.4-1,0-.9.67-1.32,1.75-1.32Z" fill="#383838"/><path d="M70.21,221.63h-2.62l1.75-11.59h2.35l.07,1.39c1.25-.93,2.8-1.62,4.52-1.62,2.47,0,3.52,1.3,3.15,3.73l-1.22,8.09h-2.62l1.15-7.65c.17-1.21-.17-2.2-1.9-2.2-1.3,0-2.62.76-3.32,1.23l-1.3,8.62Z" fill="#383838"/><path d="M95.32,221.33c-1.07.3-2.37.53-3.55.53-3.6,0-5.29-2.04-5.29-4.98,0-3.99,2.42-7.07,7.14-7.07,1.17,0,2.37.23,3.35.53l-.65,1.78c-1-.3-1.8-.46-2.7-.46-3.2,0-4.37,2.48-4.37,5.03,0,1.85.85,3.31,3.12,3.31.9,0,1.75-.16,2.82-.46l.12,1.78Z" fill="#383838"/><path d="M97.16,216.88c0-3.57,2.07-7.07,6.77-7.07,3.5,0,4.92,2.25,4.92,4.98,0,3.59-2.07,7.07-6.74,7.07-3.52,0-4.95-2.25-4.95-4.98ZM99.91,216.95c0,1.78.62,3.18,2.45,3.18,3,0,3.75-3.01,3.75-5.38,0-1.78-.62-3.2-2.45-3.2-2.97,0-3.75,3.01-3.75,5.4Z" fill="#383838"/><path d="M114.32,211.64c1.3-1.09,2.65-1.83,4.37-1.83s2.77.63,3.1,1.99c1.67-1.37,3.15-1.99,4.77-1.99,2.47,0,3.52,1.3,3.15,3.73l-1.22,8.09h-2.62l1.15-7.65c.17-1.21-.17-2.2-1.9-2.2-1.2,0-2.37.65-3.25,1.23-.03.3-.05.63-.1.97l-1.15,7.65h-2.62l1.15-7.65c.18-1.21-.17-2.2-1.9-2.2-1.3,0-2.5.76-3.2,1.23l-1.3,8.62h-2.62l1.75-11.59h2.35l.05,1.6h.05Z" fill="#383838"/><path d="M135.33,211.2h.05c.92-.81,2.3-1.39,3.7-1.39,2.85,0,4.02,2.09,4.02,4.77,0,3.82-2.02,7.28-5.99,7.28-1.32,0-2.45-.51-3.15-1.32h-.05l-.8,5.26h-2.62l2.4-15.76h2.35l.1,1.16ZM134.13,219.02c.4.35,1.25.88,2.45.88,2.62,0,3.75-2.39,3.75-4.96,0-1.81-.75-3.15-2.52-3.15-1.2,0-2.2.56-2.7.9l-.97,6.33Z" fill="#383838"/><path d="M147.37,219.08c-.1.67.12.97.85.97.3,0,.58-.02.88-.09l-.25,1.74c-.65.09-1.35.16-1.85.16-2.3,0-2.5-1.21-2.3-2.55l2.05-13.44h2.62l-2,13.21Z" fill="#383838"/><path d="M154.84,210.05l-1.75,11.59h-2.62l1.75-11.59h2.62ZM154.09,206.29c.9,0,1.42.3,1.42.97,0,.9-.65,1.34-1.77,1.34-.88,0-1.4-.32-1.4-1,0-.9.67-1.32,1.75-1.32Z" fill="#383838"/><path d="M164.96,221.33c-1.07.3-2.37.53-3.55.53-3.6,0-5.3-2.04-5.3-4.98,0-3.99,2.42-7.07,7.14-7.07,1.17,0,2.37.23,3.35.53l-.65,1.78c-1-.3-1.8-.46-2.7-.46-3.2,0-4.37,2.48-4.37,5.03,0,1.85.85,3.31,3.12,3.31.9,0,1.75-.16,2.82-.46l.12,1.78Z" fill="#383838"/><path d="M174.57,220.48h-.05c-.95.81-2.35,1.39-3.72,1.39-2.87,0-4.02-2.13-4.02-4.8,0-3.92,2.3-7.25,7.09-7.25,1.92,0,3.6.42,4.8.93l-1.65,10.89h-2.35l-.1-1.16ZM172.08,219.9c1.2,0,2.2-.53,2.72-.88l1.05-7c-.65-.3-1.4-.46-2.17-.46-2.92,0-4.12,2.36-4.12,5.17,0,1.85.75,3.18,2.52,3.18Z" fill="#383838"/><path d="M188.89,221.33c-1.07.3-2.37.53-3.55.53-3.6,0-5.29-2.04-5.29-4.98,0-3.99,2.42-7.07,7.14-7.07,1.17,0,2.37.23,3.35.53l-.65,1.78c-1-.3-1.8-.46-2.7-.46-3.2,0-4.37,2.48-4.37,5.03,0,1.85.85,3.31,3.12,3.31.9,0,1.75-.16,2.82-.46l.12,1.78Z" fill="#383838"/><path d="M195.08,210.05l-1.75,11.59h-2.62l1.75-11.59h2.62ZM194.33,206.29c.9,0,1.42.3,1.42.97,0,.9-.65,1.34-1.77,1.34-.88,0-1.4-.32-1.4-1,0-.9.67-1.32,1.75-1.32Z" fill="#383838"/><path d="M196.35,216.88c0-3.57,2.07-7.07,6.77-7.07,3.5,0,4.92,2.25,4.92,4.98,0,3.59-2.07,7.07-6.75,7.07-3.52,0-4.95-2.25-4.95-4.98ZM199.1,216.95c0,1.78.62,3.18,2.45,3.18,3,0,3.75-3.01,3.75-5.38,0-1.78-.62-3.2-2.45-3.2-2.97,0-3.75,3.01-3.75,5.4Z" fill="#383838"/><path d="M211.94,221.63h-2.62l1.75-11.59h2.35l.07,1.39c1.25-.93,2.8-1.62,4.52-1.62,2.47,0,3.52,1.3,3.15,3.73l-1.22,8.09h-2.62l1.15-7.65c.17-1.21-.17-2.2-1.9-2.2-1.3,0-2.62.76-3.32,1.23l-1.3,8.62Z" fill="#383838"/><path d="M225.73,217.23c.1,1.34.72,2.78,3.57,2.78,1.32,0,2.5-.14,3.65-.53l.03,1.76c-1.7.51-3.1.63-4.35.63-4.37,0-5.7-2.36-5.7-4.96,0-3.92,2.32-7.09,7.22-7.09,3.02,0,4.57,1.51,4.57,3.11,0,1.23-.35,3.85-8.99,4.31ZM225.73,215.63c6.17-.42,6.52-1.83,6.52-2.5,0-.83-.7-1.69-2.4-1.69-2.77,0-3.82,2.04-4.12,4.2Z" fill="#383838"/><path d="M245.94,212.13c-1.32-.39-2.67-.63-3.57-.63-2,0-2.65.95-2.65,1.58,0,2.06,6,1.6,6,4.89,0,2.48-2.37,3.89-5.77,3.89-1.67,0-3.32-.16-4.72-.51l.7-1.81c1.6.46,3.02.65,3.9.65,2.27,0,2.75-1.18,2.75-1.72,0-2.09-5.89-1.51-5.89-4.94,0-2.34,2.3-3.73,5.67-3.73,1.67,0,2.85.19,4.25.53l-.65,1.78Z" fill="#383838"/><path d="M248.91,219.15c.9,0,1.45.44,1.45,1.16,0,.86-.77,1.51-1.85,1.51-.9,0-1.45-.49-1.45-1.18,0-.88.75-1.48,1.85-1.48Z" fill="#383838"/><path d="M105.74,49.28v9.44h-5.62v-26.09h11.99c5.87,0,9.55,3.38,9.55,8.32s-3.68,8.32-9.55,8.32h-6.37ZM105.74,44.98h5.83c2.6,0,4.46-1.15,4.46-4.03,0-2.72-1.86-4.03-4.46-4.03h-5.83v8.06Z" fill="#383838"/><path d="M127.52,50.2c.17,2.88,1.69,5.29,6.61,5.29,1.9,0,3.84-.23,5.62-.92l.58,3.41c-2.77.92-5.25,1.11-7.19,1.11-7.77,0-11-4.22-11-9.97s3.6-9.97,10.46-9.97c6.28,0,8.8,3.61,8.8,7.48,0,.96-.12,2.46-.41,3.57h-13.48ZM136.41,47.09c.12-.69.12-1.19.12-1.53,0-1.42-1.16-3.26-4.05-3.26-3.51,0-4.96,2.69-4.96,4.8h8.89Z" fill="#383838"/><path d="M157.32,56.79h-.08c-1.28,1.34-3.39,2.3-5.54,2.3-5.66,0-7.94-4.49-7.94-9.97s2.6-9.97,8.23-9.97c1.98,0,3.97.81,5.25,2.15h.08v-8.67h5.12v26.09h-4.59l-.54-1.92ZM157.32,44.29c-.66-.5-1.98-1.3-3.72-1.3-3.1,0-4.46,2.57-4.46,6.14s1.36,6.14,4.46,6.14c1.74,0,3.06-.77,3.72-1.27v-9.71Z" fill="#383838"/><path d="M171.5,39.53v19.18h-5.13v-19.18h5.13ZM168.9,38l-1.74-2.22,6.12-4.37,2.15,3.07-6.53,3.53Z" fill="#383838"/><path d="M105.99,75.27v10.51c0,1.5.99,1.92,2.07,1.92.45,0,1.32-.04,1.82-.15v3.38c-1.12.19-3.02.31-3.97.31-4.13,0-5.04-2.15-5.04-4.99v-10.97h-2.48v-3.34l2.48-.27v-5.37h5.12v5.37h3.89v3.61h-3.89Z" fill="#383838"/><path d="M125.37,71.66h5.12v19.18h-4.59l-.54-2.57h-.08c-1.86,1.84-3.93,2.95-6.66,2.95-4.09,0-6.16-2.19-6.16-6.14v-13.43h5.13v12.51c0,1.8.74,3.22,3.31,3.22,1.78,0,3.51-1.04,4.46-1.69v-14.04Z" fill="#383838"/><path d="M158.73,90.3c-1.78.54-3.89.92-5.91.92-6.86,0-10.33-4.07-10.33-9.97s3.47-9.97,10.33-9.97c2.03,0,4.13.38,5.91.92l-.74,3.45c-1.78-.5-3.1-.77-4.55-.77-4.01,0-5.58,2.76-5.58,6.37s1.57,6.37,5.58,6.37c1.45,0,2.77-.27,4.55-.77l.74,3.45Z" fill="#383838"/><path d="M166.58,90.84h-5.13v-19.18h4.59l.54,3.72h.08c1.41-2.57,4.09-4.1,6.86-4.1v4.53c-3.06,0-5.66,1.04-6.94,1.8v13.23Z" fill="#383838"/><path d="M179.4,82.33c.17,2.88,1.69,5.29,6.61,5.29,1.9,0,3.84-.23,5.62-.92l.58,3.41c-2.77.92-5.25,1.11-7.19,1.11-7.77,0-11-4.22-11-9.97s3.6-9.97,10.46-9.97c6.28,0,8.8,3.61,8.8,7.48,0,.96-.12,2.46-.41,3.57h-13.48ZM188.28,79.22c.12-.69.12-1.19.12-1.53,0-1.42-1.16-3.26-4.05-3.26-3.51,0-4.96,2.69-4.96,4.8h8.89ZM184.36,70.13l-1.74-2.22,6.12-4.37,2.15,3.07-6.53,3.53Z" fill="#383838"/><path d="M209.2,88.92h-.08c-1.28,1.34-3.39,2.3-5.54,2.3-5.66,0-7.94-4.49-7.94-9.97s2.6-9.97,8.23-9.97c1.98,0,3.97.81,5.25,2.15h.08v-8.67h5.12v26.09h-4.59l-.54-1.92ZM209.2,76.42c-.66-.5-1.98-1.3-3.72-1.3-3.1,0-4.46,2.57-4.46,6.14s1.36,6.14,4.46,6.14c1.74,0,3.06-.77,3.72-1.27v-9.71Z" fill="#383838"/><path d="M220.82,65.06c1.9,0,2.98.65,2.98,2.15s-1.07,2.23-2.98,2.23-2.98-.69-2.98-2.23,1.08-2.15,2.98-2.15ZM223.38,71.66v19.18h-5.13v-19.18h5.13Z" fill="#383838"/><path d="M233.38,75.27v10.51c0,1.5.99,1.92,2.07,1.92.45,0,1.32-.04,1.82-.15v3.38c-1.12.19-3.02.31-3.97.31-4.13,0-5.04-2.15-5.04-4.99v-10.97h-2.48v-3.34l2.48-.27v-5.37h5.12v5.37h3.89v3.61h-3.89Z" fill="#383838"/><path d="M239.46,81.25c0-5.37,2.77-9.97,9.71-9.97s9.71,4.6,9.71,9.97-2.81,9.97-9.71,9.97-9.71-4.6-9.71-9.97ZM244.83,81.25c0,3.68.99,6.6,4.34,6.6s4.34-2.92,4.34-6.6-.99-6.6-4.34-6.6-4.34,2.95-4.34,6.6Z" fill="#383838"/><path d="M104.66,114.46c.17,2.88,1.69,5.29,6.61,5.29,1.9,0,3.84-.23,5.62-.92l.58,3.41c-2.77.92-5.25,1.11-7.19,1.11-7.77,0-11-4.22-11-9.97s3.6-9.97,10.46-9.97c6.28,0,8.8,3.61,8.8,7.48,0,.96-.12,2.46-.41,3.57h-13.48ZM113.55,111.35c.12-.69.12-1.19.12-1.53,0-1.42-1.16-3.26-4.05-3.26-3.51,0-4.96,2.69-4.96,4.8h8.89Z" fill="#383838"/><path d="M126.98,122.97h-5.13v-19.18h4.59l.54,2.3c1.78-1.57,4.01-2.69,6.74-2.69,4.09,0,6.16,2.19,6.16,6.18v13.39h-5.12v-12.51c0-1.8-.79-3.22-3.31-3.22-1.82,0-3.56,1.04-4.46,1.69v14.04Z" fill="#383838"/><path d="M157.49,106.36c1.82-1.8,3.76-2.95,6.49-2.95s4.67,1,5.54,3.22c2.36-2.22,4.63-3.22,7.19-3.22,4.09,0,6.16,2.19,6.16,6.18v13.39h-5.12v-12.51c0-1.8-.79-3.22-3.31-3.22-1.65,0-3.22.88-4.38,1.69.04.5.08,1,.08,1.53v12.51h-5.13v-12.51c0-1.8-.79-3.22-3.31-3.22-1.82,0-3.39,1.04-4.3,1.69v14.04h-5.13v-19.18h4.59l.54,2.57h.08Z" fill="#383838"/><path d="M189.36,97.19c1.9,0,2.98.65,2.98,2.15s-1.07,2.23-2.98,2.23-2.98-.69-2.98-2.23,1.08-2.15,2.98-2.15ZM191.92,103.79v19.18h-5.13v-19.18h5.13Z" fill="#383838"/><path d="M200.97,122.97h-5.13v-19.18h4.59l.54,2.3c1.78-1.57,4.01-2.69,6.74-2.69,4.09,0,6.16,2.19,6.16,6.18v13.39h-5.12v-12.51c0-1.8-.79-3.22-3.31-3.22-1.82,0-3.56,1.04-4.46,1.69v14.04Z" fill="#383838"/><path d="M230.7,103.79h5.12v19.18h-4.59l-.54-2.57h-.08c-1.86,1.84-3.93,2.95-6.66,2.95-4.09,0-6.16-2.19-6.16-6.14v-13.43h5.13v12.51c0,1.8.74,3.22,3.31,3.22,1.78,0,3.51-1.04,4.46-1.69v-14.04Z" fill="#383838"/><path d="M245.82,107.4v10.51c0,1.5.99,1.92,2.07,1.92.45,0,1.32-.04,1.82-.15v3.38c-1.12.19-3.02.31-3.97.31-4.13,0-5.04-2.15-5.04-4.99v-10.97h-2.48v-3.34l2.48-.27v-5.37h5.12v5.37h3.89v3.61h-3.89Z" fill="#383838"/><path d="M251.9,113.38c0-5.37,2.77-9.97,9.71-9.97s9.71,4.6,9.71,9.97-2.81,9.97-9.71,9.97-9.71-4.6-9.71-9.97ZM257.27,113.38c0,3.68.99,6.6,4.34,6.6s4.34-2.92,4.34-6.6-.99-6.6-4.34-6.6-4.34,2.95-4.34,6.6Z" fill="#383838"/><path d="M289.1,107.78c-2.11-.61-4.51-1.11-6.08-1.11-2.52,0-3.35,1.15-3.35,2.03,0,3.38,10.67,2.42,10.67,8.63,0,3.91-3.51,6.02-8.8,6.02-2.85,0-5.75-.31-8.14-.88l.83-3.49c2.73.77,5.04,1.11,6.57,1.11,2.85,0,3.55-1.34,3.55-2.19,0-3.41-10.54-2.23-10.54-8.78,0-3.68,3.43-5.72,8.68-5.72,2.85,0,4.96.35,7.36.92l-.74,3.45Z" fill="#383838"/></g></svg>