<?xml version="1.0" encoding="UTF-8"?><svg id="b" xmlns="http://www.w3.org/2000/svg" viewBox="0 0 668.88 305.83"><g id="c"><path d="M38.24,23.78c-6.42-1.73-11.88-2.36-15.69-2.36-3.14,0-5.15.83-5.15,2.91,0,5.82,25.32,2.22,25.32,19.34,0,10.74-9.11,15.25-20.47,15.25-6.05,0-12.55-.35-20.46-2.36l2.02-11.02c7.47,1.73,13.97,2.43,17.78,2.43,3.14,0,6.27-.9,6.27-3.26,0-5.89-25.32-2.77-25.32-20.38,0-10.05,9.11-13.93,19.72-13.93,6.12,0,11.43.62,19.05,2.7l-3.06,10.68Z" fill="#fff"/><path d="M53.1,9.7c4.78,0,7.54,1.52,7.54,5.34s-2.76,5.48-7.54,5.48-7.47-1.66-7.47-5.48,2.76-5.34,7.47-5.34ZM59.9,23.57v34.66h-13.52V23.57h13.52Z" fill="#fff"/><path d="M110.83,57.19c-3.73,1.04-7.77,1.73-11.73,1.73-12.62,0-19.79-7-19.79-18.02s7.17-18.02,19.79-18.02c3.96,0,7.99.69,11.73,1.73l-1.79,9.08c-3.66-1.04-5.6-1.39-8.29-1.39-4.85,0-7.25,3.33-7.25,8.6s2.39,8.6,7.25,8.6c2.69,0,4.63-.35,8.29-1.39l1.79,9.08Z" fill="#fff"/><path d="M111.5,40.9c0-9.71,5.15-18.02,18.67-18.02s18.67,8.32,18.67,18.02-5.23,18.02-18.67,18.02-18.67-8.32-18.67-18.02ZM125.7,40.9c0,5.48.6,9.22,4.48,9.22s4.48-3.74,4.48-9.22-.6-9.22-4.48-9.22-4.48,3.74-4.48,9.22Z" fill="#fff"/><path d="M166.1,27.03h.15c1.87-2.43,5.53-4.16,8.81-4.16,9.93,0,13.97,8.39,13.97,18.02s-5.9,18.02-19.49,18.02c-6.8,0-12.62-1.32-16.96-2.77V11.09h13.52v15.94ZM166.1,49.56c1.12.42,2.17.55,3.14.55,3.81,0,5.6-2.63,5.6-8.6s-1.87-8.6-5.08-8.6c-1.64,0-3.06.69-3.66,1.18v15.46Z" fill="#fff"/><path d="M206.28,58.23h-13.52V23.57h12.17l1.34,7.28h.15c1.64-5.2,6.42-7.97,10.83-7.97v11.92c-5,0-9.04.76-10.98,1.59v21.84Z" fill="#fff"/><path d="M237.2,34.94c0-2.15-1.72-3.54-4.63-3.54-3.14,0-7.54,1.04-11.43,2.7l-2.76-8.46c7.25-2.29,11.58-2.77,16.43-2.77,9.56,0,15.91,4.37,15.91,11.65v23.71h-12.1l-1.42-3.54c-2.99,3.05-6.72,4.23-10.38,4.23-6.2,0-10.31-3.47-10.31-9.01,0-8.32,8.44-12.55,20.69-13.38v-1.59ZM237.2,42.7c-4.26.42-6.87,2.01-6.87,4.23,0,1.94,1.72,2.56,3.14,2.56s2.69-.49,3.74-1.32v-5.48ZM234.43,20.8l-3.58-5.2,12.25-7.69,4.33,7.14-13,5.75Z" fill="#fff"/><path d="M284.18,33.69c-2.91-1.04-7.99-2.29-11.05-2.29-1.57,0-2.76.55-2.76,1.66,0,3.6,16.58,2.98,16.58,14.07,0,7.83-6.95,11.78-17.18,11.78-5.45,0-11.5-.62-15.69-1.66l2.09-9.22c4.85,1.46,8.66,2.43,11.58,2.43,2.17,0,3.29-.83,3.29-1.87,0-3.67-16.21-2.56-16.21-14.42,0-7.49,6.87-11.3,16.81-11.3,5.45,0,10.16.69,14.34,1.73l-1.79,9.08Z" fill="#fff"/><path d="M321.14,33v14.63c0,1.59,1.49,2.15,2.69,2.15.6,0,2.17-.07,2.99-.28v8.8c-2.46.35-6.72.62-8.81.62-8.29,0-10.38-3.81-10.38-10.05v-15.87h-3.36v-8.8l3.36-.62v-9.71h13.52v9.71h5.68v9.43h-5.68Z" fill="#fff"/><path d="M351.46,23.57h13.52v34.66h-12.17l-1.34-4.16h-.15c-2.76,3.12-5.9,4.85-10.31,4.85-7.32,0-11.05-4.23-11.05-11.16v-24.19h13.52v21.77c0,2.15.97,3.54,3.73,3.54,1.57,0,3.21-.69,4.26-1.25v-24.05Z" fill="#fff"/><path d="M414.12,33.69c-2.91-1.04-7.99-2.29-11.05-2.29-1.57,0-2.76.55-2.76,1.66,0,3.6,16.58,2.98,16.58,14.07,0,7.83-6.95,11.78-17.18,11.78-5.45,0-11.5-.62-15.69-1.66l2.09-9.22c4.85,1.46,8.66,2.43,11.58,2.43,2.17,0,3.29-.83,3.29-1.87,0-3.67-16.21-2.56-16.21-14.42,0-7.49,6.87-11.3,16.81-11.3,5.45,0,10.16.69,14.34,1.73l-1.79,9.08Z" fill="#fff"/><path d="M441.76,23.57h13.52v34.66h-12.17l-1.34-4.16h-.15c-2.76,3.12-5.9,4.85-10.31,4.85-7.32,0-11.05-4.23-11.05-11.16v-24.19h13.52v21.77c0,2.15.97,3.54,3.73,3.54,1.57,0,3.21-.69,4.26-1.25v-24.05Z" fill="#fff"/><path d="M473.2,43.46c.45,3.12,2.69,6.03,9.71,6.03,2.91,0,6.72-.55,9.86-1.73l1.34,8.87c-5.45,1.94-11.05,2.29-13.89,2.29-14.71,0-21.21-7.63-21.21-18.02s7.47-18.02,20.09-18.02c11.13,0,17.18,5.82,17.18,14.07,0,1.94-.3,4.37-.75,6.52h-22.33ZM483.21,36.6c.15-.69.22-1.25.22-1.73,0-1.87-1.27-3.81-4.63-3.81-3.73,0-5.6,2.77-5.6,5.55h10.01Z" fill="#fff"/><path d="M513.53,47.83c0,1.39.67,1.94,1.87,1.94.6,0,1.42-.07,2.24-.28v8.8c-2.46.35-5.3.62-7.39.62-8.22,0-10.23-3.74-10.23-9.84V11.09h13.52v36.74Z" fill="#fff"/><path d="M541.39,54.76h-.15c-1.87,2.43-5.53,4.16-8.81,4.16-9.93,0-13.97-8.39-13.97-18.02s4.78-18.02,14.79-18.02c2.91,0,6.12,1.39,7.99,3.81h.15v-15.6h13.52v47.14h-12.18l-1.34-3.47ZM541.39,34.11c-.6-.49-2.02-1.18-3.66-1.18-3.21,0-5.08,2.77-5.08,7.97s1.87,7.97,5.08,7.97c1.64,0,3.06-.69,3.66-1.18v-13.59Z" fill="#fff"/><path d="M558.64,40.9c0-9.71,5.15-18.02,18.67-18.02s18.67,8.32,18.67,18.02-5.23,18.02-18.67,18.02-18.67-8.32-18.67-18.02ZM572.83,40.9c0,5.48.6,9.22,4.48,9.22s4.48-3.74,4.48-9.22-.6-9.22-4.48-9.22-4.48,3.74-4.48,9.22Z" fill="#fff"/><path d="M621.57,47.57c.21,3.6,2.12,6.62,8.27,6.62,2.38,0,4.81-.29,7.03-1.15l.72,4.27c-3.46,1.15-6.57,1.39-9,1.39-9.72,0-13.75-5.28-13.75-12.48s4.5-12.48,13.08-12.48c7.86,0,11.01,4.51,11.01,9.36,0,1.2-.16,3.07-.52,4.46h-16.86ZM632.69,43.68c.16-.86.16-1.49.16-1.92,0-1.78-1.45-4.08-5.07-4.08-4.4,0-6.21,3.36-6.21,6h11.12Z" fill="#fff"/><path d="M649.5,58.23h-6.41v-24h5.74l.67,2.88c2.22-1.97,5.02-3.36,8.43-3.36,5.12,0,7.71,2.74,7.71,7.73v16.75h-6.41v-15.65c0-2.26-.98-4.03-4.14-4.03-2.28,0-4.45,1.3-5.58,2.11v17.57Z" fill="#fff"/><path d="M48.79,111.4c6.51,2.14,12.52,6.51,12.52,14.88,0,11.16-9.02,17.95-24.25,17.95H4.51v-63.24h30.56c15.23,0,23.44,5.86,23.44,16.65,0,6.51-4.11,11.25-9.72,13.58v.19ZM33.56,104.15c3.81,0,5.81-.84,5.81-4s-2-4-5.81-4h-9.12v8h9.12ZM24.45,119.3v9.77h10.22c3.81,0,6.71-.84,6.71-4.84s-2.91-4.93-6.91-4.93h-10.02Z" fill="#5bd26f"/><path d="M91.38,112.98c0-2.88-2.3-4.74-6.21-4.74-4.21,0-10.12,1.4-15.33,3.63l-3.71-11.35c9.72-3.07,15.53-3.72,22.04-3.72,12.82,0,21.34,5.86,21.34,15.62v31.81h-16.23l-1.9-4.74c-4.01,4.09-9.02,5.67-13.93,5.67-8.32,0-13.83-4.65-13.83-12.09,0-11.16,11.32-16.83,27.75-17.95v-2.14ZM91.38,123.4c-5.71.56-9.22,2.7-9.22,5.67,0,2.6,2.3,3.44,4.21,3.44,1.8,0,3.61-.65,5.01-1.77v-7.35Z" fill="#5bd26f"/><path d="M134.16,144.23h-18.13v-46.5h16.33l1.8,5.39c3.91-4.09,8.02-6.32,14.03-6.32,9.82,0,14.83,5.67,14.83,14.97v32.46h-18.13v-29.2c0-2.79-1.3-4.74-5.01-4.74-2.1,0-4.31,1.02-5.71,1.77v32.18Z" fill="#5bd26f"/><path d="M210.31,142.83c-5.01,1.4-10.42,2.33-15.73,2.33-16.93,0-26.55-9.39-26.55-24.18s9.62-24.18,26.55-24.18c5.31,0,10.72.93,15.73,2.33l-2.41,12.18c-4.91-1.4-7.51-1.86-11.12-1.86-6.51,0-9.72,4.46-9.72,11.53s3.21,11.53,9.72,11.53c3.61,0,6.21-.46,11.12-1.86l2.41,12.18Z" fill="#5bd26f"/><path d="M211.21,120.98c0-13.02,6.91-24.18,25.05-24.18s25.05,11.16,25.05,24.18-7.01,24.18-25.05,24.18-25.05-11.16-25.05-24.18ZM230.25,120.98c0,7.35.8,12.37,6.01,12.37s6.01-5.02,6.01-12.37-.8-12.37-6.01-12.37-6.01,5.02-6.01,12.37Z" fill="#5bd26f"/><path d="M335.85,96.15h-27.55v9.77h22.94v15.16h-22.94v23.16h-19.94v-63.24h47.49v15.16Z" fill="#5bd26f"/><path d="M336.16,120.98c0-13.02,6.91-24.18,25.05-24.18s25.05,11.16,25.05,24.18-7.01,24.18-25.05,24.18-25.05-11.16-25.05-24.18ZM355.19,120.98c0,7.35.8,12.37,6.01,12.37s6.01-5.02,6.01-12.37-.8-12.37-6.01-12.37-6.01,5.02-6.01,12.37Z" fill="#5bd26f"/><path d="M409.4,144.23h-18.13v-46.5h16.33l1.8,9.77h.2c2.2-6.98,8.62-10.7,14.53-10.7v16c-6.71,0-12.12,1.02-14.73,2.14v29.3Z" fill="#5bd26f"/><path d="M445.97,103.31c3.71-4.19,7.71-6.51,13.73-6.51s10.52,2.23,12.82,7.07c5.11-5.12,10.42-7.07,15.93-7.07,9.82,0,14.83,5.67,14.83,14.97v32.46h-18.13v-29.2c0-2.79-1.3-4.74-5.01-4.74-1.8,0-3.91.74-5.71,1.67.1,1.02.1,2.05.1,3.07v29.2h-18.13v-29.2c0-2.79-1.3-4.74-5.01-4.74-2.1,0-4.21,1.02-5.61,1.77v32.18h-18.13v-46.5h16.33l1.8,5.58h.2Z" fill="#5bd26f"/><path d="M508.29,120.98c0-13.02,6.91-24.18,25.05-24.18s25.05,11.16,25.05,24.18-7.01,24.18-25.05,24.18-25.05-11.16-25.05-24.18ZM527.33,120.98c0,7.35.8,12.37,6.01,12.37s6.01-5.02,6.01-12.37-.8-12.37-6.01-12.37-6.01,5.02-6.01,12.37Z" fill="#5bd26f"/><path d="M600.77,111.31c-3.91-1.4-10.72-3.07-14.83-3.07-2.1,0-3.71.74-3.71,2.23,0,4.84,22.24,4,22.24,18.88,0,10.51-9.32,15.81-23.04,15.81-7.31,0-15.43-.84-21.04-2.23l2.81-12.37c6.51,1.95,11.62,3.25,15.53,3.25,2.91,0,4.41-1.12,4.41-2.51,0-4.93-21.74-3.44-21.74-19.34,0-10.04,9.22-15.16,22.54-15.16,7.31,0,13.63.93,19.24,2.33l-2.4,12.18Z" fill="#5bd26f"/><path d="M635.24,112.98c0-2.88-2.3-4.74-6.21-4.74-4.21,0-10.12,1.4-15.33,3.63l-3.71-11.35c9.72-3.07,15.53-3.72,22.04-3.72,12.82,0,21.34,5.86,21.34,15.62v31.81h-16.23l-1.9-4.74c-4.01,4.09-9.02,5.67-13.93,5.67-8.32,0-13.83-4.65-13.83-12.09,0-11.16,11.32-16.83,27.75-17.95v-2.14ZM635.24,123.4c-5.71.56-9.22,2.7-9.22,5.67,0,2.6,2.3,3.44,4.21,3.44,1.8,0,3.61-.65,5.01-1.77v-7.35Z" fill="#5bd26f"/><path d="M658.23,148.55c1.4-3.07,1.86-6.38,1.86-9.5h6.41c-.05,3.36-.78,6.91-4.03,10.46l-4.24-.96Z" fill="#fff"/><path d="M25.75,185.55c0-3.5-2.46-5.49-6.99-5.49-3.54,0-8.15,1.07-12.14,2.64l-1.92-6.06c6.23-1.93,10.84-2.78,15.53-2.78,8.84,0,15.06,3.92,15.06,11.41v24.97h-8.61l-.92-3.85c-3.77,3.5-7.38,4.57-11.76,4.57-6.46,0-11.3-3.57-11.3-9.27,0-8.56,8.22-12.06,23.06-13.34v-2.78ZM25.75,193.39c-8.46.64-13.45,3-13.45,6.56,0,2.78,2.08,4.28,5.23,4.28s6.38-1.43,8.22-3.28v-7.56Z" fill="#fff"/><path d="M71.63,209.23c-3.3,1-7.22,1.71-10.99,1.71-12.76,0-19.21-7.56-19.21-18.55s6.46-18.55,19.21-18.55c3.77,0,7.69.71,10.99,1.71l-1.38,6.42c-3.3-.93-5.76-1.43-8.46-1.43-7.46,0-10.38,5.14-10.38,11.84s2.92,11.84,10.38,11.84c2.69,0,5.15-.5,8.46-1.43l1.38,6.42Z" fill="#fff"/><path d="M104.61,209.23c-3.31,1-7.22,1.71-10.99,1.71-12.76,0-19.21-7.56-19.21-18.55s6.46-18.55,19.21-18.55c3.77,0,7.69.71,10.99,1.71l-1.38,6.42c-3.31-.93-5.76-1.43-8.45-1.43-7.46,0-10.38,5.14-10.38,11.84s2.92,11.84,10.38,11.84c2.69,0,5.15-.5,8.45-1.43l1.38,6.42Z" fill="#fff"/><path d="M117.37,194.39c.31,5.35,3.15,9.84,12.3,9.84,3.54,0,7.15-.43,10.45-1.71l1.08,6.35c-5.15,1.71-9.76,2.07-13.37,2.07-14.45,0-20.45-7.85-20.45-18.55s6.69-18.55,19.45-18.55c11.68,0,16.37,6.71,16.37,13.91,0,1.78-.23,4.57-.77,6.63h-25.06ZM133.89,188.61c.23-1.28.23-2.21.23-2.85,0-2.64-2.15-6.06-7.53-6.06-6.53,0-9.22,4.99-9.22,8.92h16.52Z" fill="#fff"/><path d="M172.78,206.66h-.15c-2.38,2.5-6.3,4.28-10.3,4.28-10.53,0-14.76-8.35-14.76-18.55s4.84-18.55,15.29-18.55c3.69,0,7.38,1.5,9.76,3.99h.15v-16.12h9.53v48.51h-8.53l-1-3.57ZM172.78,183.41c-1.23-.93-3.69-2.43-6.92-2.43-5.76,0-8.3,4.78-8.3,11.41s2.54,11.41,8.3,11.41c3.23,0,5.69-1.43,6.92-2.35v-18.05Z" fill="#fff"/><path d="M198.46,194.39c.31,5.35,3.15,9.84,12.3,9.84,3.54,0,7.15-.43,10.45-1.71l1.08,6.35c-5.15,1.71-9.76,2.07-13.37,2.07-14.45,0-20.44-7.85-20.44-18.55s6.69-18.55,19.45-18.55c11.68,0,16.37,6.71,16.37,13.91,0,1.78-.23,4.57-.77,6.63h-25.06ZM214.98,188.61c.23-1.28.23-2.21.23-2.85,0-2.64-2.15-6.06-7.53-6.06-6.53,0-9.22,4.99-9.22,8.92h16.53ZM207.68,171.71l-3.23-4.14,11.38-8.13,4,5.71-12.14,6.56Z" fill="#fff"/><path d="M268.47,185.55c0-3.5-2.46-5.49-6.99-5.49-3.54,0-8.15,1.07-12.14,2.64l-1.92-6.06c6.23-1.93,10.84-2.78,15.53-2.78,8.84,0,15.06,3.92,15.06,11.41v24.97h-8.61l-.92-3.85c-3.77,3.5-7.38,4.57-11.76,4.57-6.46,0-11.3-3.57-11.3-9.27,0-8.56,8.22-12.06,23.06-13.34v-2.78ZM268.47,193.39c-8.45.64-13.45,3-13.45,6.56,0,2.78,2.07,4.28,5.23,4.28s6.38-1.43,8.22-3.28v-7.56Z" fill="#fff"/><path d="M294.84,201.67c0,1.93.77,2.71,2.77,2.71.85,0,1.69-.07,2.61-.29v6.28c-2.07.36-4.38.57-6.15.57-7.38,0-8.76-3.71-8.76-8.42v-40.8h9.53v39.95Z" fill="#fff"/><path d="M349.93,209.19c-3.73,1.04-7.77,1.73-11.73,1.73-12.62,0-19.79-7-19.79-18.02s7.17-18.02,19.79-18.02c3.96,0,7.99.69,11.73,1.73l-1.79,9.08c-3.66-1.04-5.6-1.39-8.29-1.39-4.86,0-7.25,3.33-7.25,8.6s2.39,8.6,7.25,8.6c2.69,0,4.63-.35,8.29-1.39l1.79,9.08Z" fill="#fff"/><path d="M366.36,210.23h-13.52v-34.66h12.17l1.34,7.28h.15c1.64-5.2,6.42-7.97,10.83-7.97v11.92c-5,0-9.04.76-10.98,1.59v21.84Z" fill="#fff"/><path d="M392.64,195.46c.45,3.12,2.69,6.03,9.71,6.03,2.91,0,6.72-.55,9.86-1.73l1.34,8.87c-5.45,1.94-11.05,2.29-13.89,2.29-14.71,0-21.21-7.63-21.21-18.02s7.47-18.02,20.09-18.02c11.13,0,17.18,5.82,17.18,14.07,0,1.94-.3,4.37-.75,6.52h-22.33ZM402.65,188.6c.15-.69.22-1.25.22-1.73,0-1.87-1.27-3.81-4.63-3.81-3.73,0-5.6,2.77-5.6,5.55h10.01ZM398.77,172.8l-3.58-5.2,12.25-7.69,4.33,7.14-13,5.75Z" fill="#fff"/><path d="M441.12,206.76h-.15c-1.87,2.43-5.53,4.16-8.81,4.16-9.93,0-13.97-8.39-13.97-18.02s4.78-18.02,14.79-18.02c2.91,0,6.12,1.39,7.99,3.81h.15v-15.6h13.52v47.14h-12.17l-1.34-3.47ZM441.12,186.11c-.6-.49-2.02-1.18-3.66-1.18-3.21,0-5.08,2.77-5.08,7.97s1.87,7.97,5.08,7.97c1.64,0,3.06-.69,3.66-1.18v-13.59Z" fill="#fff"/><path d="M466.21,161.7c4.78,0,7.54,1.52,7.54,5.34s-2.76,5.48-7.54,5.48-7.47-1.66-7.47-5.48,2.76-5.34,7.47-5.34ZM473.01,175.57v34.66h-13.52v-34.66h13.52Z" fill="#fff"/><path d="M492.65,185v14.63c0,1.59,1.49,2.15,2.69,2.15.6,0,2.17-.07,2.99-.28v8.8c-2.46.35-6.72.62-8.81.62-8.29,0-10.38-3.81-10.38-10.05v-15.87h-3.36v-8.8l3.36-.62v-9.71h13.52v9.71h5.68v9.43h-5.68Z" fill="#fff"/><path d="M500.71,192.9c0-9.71,5.15-18.02,18.67-18.02s18.67,8.32,18.67,18.02-5.23,18.02-18.67,18.02-18.67-8.32-18.67-18.02ZM514.9,192.9c0,5.48.6,9.22,4.48,9.22s4.48-3.74,4.48-9.22-.6-9.22-4.48-9.22-4.48,3.74-4.48,9.22Z" fill="#fff"/><path d="M9.34,241.7c4.78,0,7.54,1.52,7.54,5.34s-2.76,5.48-7.54,5.48-7.47-1.66-7.47-5.48,2.76-5.34,7.47-5.34ZM16.13,255.57v34.66H2.61v-34.66h13.52Z" fill="#fff"/><path d="M34.51,290.23h-13.52v-34.66h12.18l1.34,4.02c2.91-3.05,5.98-4.71,10.46-4.71,7.32,0,11.05,4.23,11.05,11.16v24.19h-13.52v-21.77c0-2.08-.97-3.54-3.73-3.54-1.57,0-3.21.76-4.26,1.32v23.98Z" fill="#fff"/><path d="M74.54,259.73c2.76-3.12,5.75-4.85,10.23-4.85s7.84,1.66,9.56,5.27c3.81-3.81,7.77-5.27,11.88-5.27,7.32,0,11.05,4.23,11.05,11.16v24.19h-13.52v-21.77c0-2.08-.97-3.54-3.73-3.54-1.34,0-2.91.55-4.26,1.25.08.76.08,1.52.08,2.29v21.77h-13.52v-21.77c0-2.08-.97-3.54-3.73-3.54-1.57,0-3.14.76-4.18,1.32v23.98h-13.52v-34.66h12.17l1.34,4.16h.15Z" fill="#fff"/><path d="M135.18,275.46c.45,3.12,2.69,6.03,9.71,6.03,2.91,0,6.72-.55,9.86-1.73l1.34,8.87c-5.45,1.94-11.05,2.29-13.89,2.29-14.71,0-21.21-7.63-21.21-18.02s7.47-18.02,20.09-18.02c11.13,0,17.18,5.82,17.18,14.07,0,1.94-.3,4.37-.75,6.52h-22.33ZM145.19,268.6c.15-.69.22-1.25.22-1.73,0-1.87-1.27-3.81-4.63-3.81-3.74,0-5.6,2.77-5.6,5.55h10.01Z" fill="#fff"/><path d="M183.65,286.76h-.15c-1.87,2.43-5.53,4.16-8.81,4.16-9.93,0-13.97-8.39-13.97-18.02s4.78-18.02,14.79-18.02c2.91,0,6.12,1.39,7.99,3.81h.15v-15.6h13.52v47.14h-12.17l-1.34-3.47ZM183.65,266.11c-.6-.49-2.02-1.18-3.66-1.18-3.21,0-5.08,2.77-5.08,7.97s1.87,7.97,5.08,7.97c1.64,0,3.06-.69,3.66-1.18v-13.59Z" fill="#fff"/><path d="M208.74,241.7c4.78,0,7.54,1.52,7.54,5.34s-2.76,5.48-7.54,5.48-7.47-1.66-7.47-5.48,2.76-5.34,7.47-5.34ZM215.54,255.57v34.66h-13.52v-34.66h13.52Z" fill="#fff"/><path d="M239.59,266.94c0-2.15-1.72-3.54-4.63-3.54-3.14,0-7.54,1.04-11.43,2.7l-2.76-8.46c7.25-2.29,11.58-2.77,16.43-2.77,9.56,0,15.91,4.37,15.91,11.65v23.71h-12.1l-1.42-3.54c-2.99,3.05-6.72,4.23-10.38,4.23-6.2,0-10.31-3.47-10.31-9.01,0-8.32,8.44-12.55,20.69-13.38v-1.59ZM239.59,274.7c-4.26.42-6.87,2.01-6.87,4.23,0,1.94,1.72,2.56,3.14,2.56,1.34,0,2.69-.49,3.73-1.32v-5.48Z" fill="#fff"/><path d="M272.75,265v14.63c0,1.59,1.49,2.15,2.69,2.15.6,0,2.17-.07,2.99-.28v8.8c-2.46.35-6.72.62-8.81.62-8.29,0-10.38-3.81-10.38-10.05v-15.87h-3.36v-8.8l3.36-.62v-9.71h13.52v9.71h5.68v9.43h-5.68Z" fill="#fff"/><path d="M280.81,272.9c0-9.71,5.15-18.02,18.67-18.02s18.67,8.32,18.67,18.02-5.23,18.02-18.67,18.02-18.67-8.32-18.67-18.02ZM295,272.9c0,5.48.6,9.22,4.48,9.22s4.48-3.74,4.48-9.22-.6-9.22-4.48-9.22-4.48,3.74-4.48,9.22Z" fill="#fff"/></g></svg>