<?xml version="1.0" encoding="UTF-8"?><svg id="b" xmlns="http://www.w3.org/2000/svg" viewBox="0 0 729.75 223.84"><g id="c"><rect y="0" width="729.75" height="181.35" rx="46.05" ry="46.05" fill="#fff"/><path d="M672.48,69.01v7.4c-2.89,20.52-16.64,32.96-38.01,30.99-39.52-3.65-41.09-61.23-2.66-68.7.98-.19,2.1-.73,2.22-.74,20.82-2.17,35.43,11.2,38.46,31.06ZM640.68,49.78h-5.18s-.05,4.39-.05,4.39c-6.84.82-12.43,5.38-10.88,12.84,1.86,8.9,18.88,6.23,20.43,11.38.62,8.51-11.78,7.4-15.87,2.5l-3.94,3.37c-.46,2.07,8.03,6.18,10.3,5.48-.53,4.04.53,6.75,4.87,4.46l.32-4.48c7.97.48,13.17-6.43,10.77-14.09-2.33-7.42-18.92-5.64-20.25-10.07-2.47-8.24,12.12-7.08,15.89-2.54,1.08.24,3.7-2.5,3.14-3.87-2.22-3.05-6.06-3.91-9.47-5.01l-.08-4.35Z" fill="#5bd26f"/><path d="M631.81,125.22c-8.74-1.04-24.03-3.91-29.58-11.46-3.88-5.27-1.09-13.34,4.8-15.91,14.3,21.15,47.71,20.71,62.97.8,8.19,1.54,9.2,12.26,3.25,17.35-5.74,4.91-19.9,8.84-27.38,9.22-4.65.24-9.39-.17-14.05,0Z" fill="#5bd26f"/><path d="M676.92,120.04c2,14.09-9.48,19.62-21.28,21.98-12.31,2.46-24.23,2.02-36.42-.89-10.82-2.59-20.81-8.2-18.11-21.09,12.68,13.48,37.4,14.77,54.52,10.89,8.6-1.95,12.49-4.26,19.06-9.78.74-.62.96-1.41,2.22-1.1Z" fill="#5bd26f"/><path d="M645.86,125.22c-.72,1.25-2.83.73-4.06.74-3.74.04-6.49-.33-9.99-.74,4.66-.17,9.4.24,14.05,0Z" fill="#5bd26f"/><path d="M672.48,76.41v-7.4c.23,1.48.95,2.42.79,4.89-.1,1.45-.74,2.19-.79,2.51Z" fill="#5bd26f"/><path d="M634.02,37.95c-.12.01-1.24.55-2.22.74l.49-.62,1.73-.12Z" fill="#5bd26f"/><path d="M68.98,50.7v9.28h-5.53v-25.65h11.78c5.77,0,9.39,3.32,9.39,8.19s-3.62,8.18-9.39,8.18h-6.26ZM68.98,46.47h5.73c2.56,0,4.39-1.13,4.39-3.96,0-2.68-1.83-3.96-4.39-3.96h-5.73v7.92Z" fill="#383838"/><path d="M90.4,51.6c.16,2.83,1.67,5.21,6.5,5.21,1.87,0,3.78-.23,5.53-.91l.57,3.36c-2.72.91-5.16,1.09-7.07,1.09-7.64,0-10.81-4.15-10.81-9.81s3.54-9.81,10.28-9.81c6.18,0,8.65,3.55,8.65,7.36,0,.94-.12,2.41-.41,3.51h-13.25ZM99.13,48.55c.12-.68.12-1.17.12-1.51,0-1.4-1.14-3.21-3.98-3.21-3.45,0-4.88,2.64-4.88,4.72h8.74Z" fill="#383838"/><path d="M119.69,58.09h-.08c-1.26,1.32-3.33,2.26-5.45,2.26-5.57,0-7.8-4.41-7.8-9.81s2.56-9.81,8.09-9.81c1.95,0,3.9.79,5.16,2.11h.08v-8.52h5.04v25.65h-4.51l-.53-1.89ZM119.69,45.79c-.65-.49-1.95-1.28-3.66-1.28-3.05,0-4.39,2.53-4.39,6.04s1.34,6.04,4.39,6.04c1.71,0,3.01-.75,3.66-1.25v-9.54Z" fill="#383838"/><path d="M133.63,41.12v18.86h-5.04v-18.86h5.04ZM131.07,39.61l-1.71-2.19,6.01-4.3,2.11,3.02-6.42,3.47Z" fill="#383838"/><path d="M152,44.66v10.34c0,1.47.98,1.89,2.03,1.89.45,0,1.3-.04,1.79-.15v3.32c-1.1.19-2.97.3-3.9.3-4.06,0-4.96-2.11-4.96-4.9v-10.79h-2.44v-3.28l2.44-.26v-5.28h5.04v5.28h3.82v3.54h-3.82Z" fill="#383838"/><path d="M171.06,41.12h5.04v18.86h-4.51l-.53-2.53h-.08c-1.83,1.81-3.86,2.9-6.54,2.9-4.02,0-6.05-2.15-6.05-6.04v-13.2h5.04v12.3c0,1.77.73,3.17,3.25,3.17,1.75,0,3.45-1.02,4.39-1.66v-13.8Z" fill="#383838"/><path d="M203.85,59.45c-1.75.53-3.82.91-5.81.91-6.75,0-10.16-4-10.16-9.81s3.41-9.81,10.16-9.81c1.99,0,4.06.38,5.81.91l-.73,3.39c-1.75-.49-3.05-.75-4.47-.75-3.94,0-5.49,2.72-5.49,6.26s1.54,6.26,5.49,6.26c1.42,0,2.72-.26,4.47-.75l.73,3.39Z" fill="#383838"/><path d="M211.57,59.98h-5.04v-18.86h4.51l.53,3.66h.08c1.38-2.53,4.02-4.04,6.75-4.04v4.45c-3.01,0-5.57,1.02-6.83,1.77v13.01Z" fill="#383838"/><path d="M224.17,51.6c.16,2.83,1.67,5.21,6.5,5.21,1.87,0,3.78-.23,5.53-.91l.57,3.36c-2.72.91-5.16,1.09-7.07,1.09-7.64,0-10.81-4.15-10.81-9.81s3.54-9.81,10.28-9.81c6.18,0,8.65,3.55,8.65,7.36,0,.94-.12,2.41-.41,3.51h-13.25ZM232.91,48.55c.12-.68.12-1.17.12-1.51,0-1.4-1.14-3.21-3.98-3.21-3.45,0-4.88,2.64-4.88,4.72h8.74ZM229.05,39.61l-1.71-2.19,6.01-4.3,2.11,3.02-6.42,3.47Z" fill="#383838"/><path d="M253.47,58.09h-.08c-1.26,1.32-3.33,2.26-5.45,2.26-5.57,0-7.8-4.41-7.8-9.81s2.56-9.81,8.09-9.81c1.95,0,3.9.79,5.16,2.11h.08v-8.52h5.04v25.65h-4.51l-.53-1.89ZM253.47,45.79c-.65-.49-1.95-1.28-3.66-1.28-3.05,0-4.39,2.53-4.39,6.04s1.34,6.04,4.39,6.04c1.71,0,3.01-.75,3.66-1.25v-9.54Z" fill="#383838"/><path d="M264.89,34.63c1.87,0,2.93.64,2.93,2.11s-1.06,2.19-2.93,2.19-2.93-.68-2.93-2.19,1.06-2.11,2.93-2.11ZM267.41,41.12v18.86h-5.04v-18.86h5.04Z" fill="#383838"/><path d="M277.24,44.66v10.34c0,1.47.98,1.89,2.03,1.89.45,0,1.3-.04,1.79-.15v3.32c-1.1.19-2.97.3-3.9.3-4.06,0-4.96-2.11-4.96-4.9v-10.79h-2.44v-3.28l2.44-.26v-5.28h5.04v5.28h3.82v3.54h-3.82Z" fill="#383838"/><path d="M283.21,50.55c0-5.28,2.72-9.81,9.55-9.81s9.55,4.53,9.55,9.81-2.76,9.81-9.55,9.81-9.55-4.53-9.55-9.81ZM288.5,50.55c0,3.62.97,6.49,4.27,6.49s4.27-2.87,4.27-6.49-.98-6.49-4.27-6.49-4.27,2.9-4.27,6.49Z" fill="#383838"/><path d="M318.97,51.6c.16,2.83,1.67,5.21,6.5,5.21,1.87,0,3.78-.23,5.53-.91l.57,3.36c-2.72.91-5.16,1.09-7.07,1.09-7.64,0-10.81-4.15-10.81-9.81s3.54-9.81,10.28-9.81c6.18,0,8.65,3.55,8.65,7.36,0,.94-.12,2.41-.41,3.51h-13.25ZM327.71,48.55c.12-.68.12-1.17.12-1.51,0-1.4-1.14-3.21-3.98-3.21-3.45,0-4.88,2.64-4.88,4.72h8.74Z" fill="#383838"/><path d="M340.92,59.98h-5.04v-18.86h4.51l.53,2.26c1.75-1.55,3.94-2.64,6.62-2.64,4.02,0,6.05,2.15,6.05,6.07v13.16h-5.04v-12.3c0-1.77-.77-3.17-3.25-3.17-1.79,0-3.5,1.02-4.39,1.66v13.81Z" fill="#383838"/><path d="M370.9,43.64c1.79-1.77,3.7-2.9,6.38-2.9s4.59.98,5.45,3.17c2.32-2.19,4.55-3.17,7.07-3.17,4.02,0,6.05,2.15,6.05,6.07v13.16h-5.04v-12.3c0-1.77-.77-3.17-3.25-3.17-1.62,0-3.17.87-4.31,1.66.04.49.08.98.08,1.51v12.3h-5.04v-12.3c0-1.77-.77-3.17-3.25-3.17-1.79,0-3.33,1.02-4.23,1.66v13.81h-5.04v-18.86h4.51l.53,2.53h.08Z" fill="#383838"/><path d="M402.24,34.63c1.87,0,2.93.64,2.93,2.11s-1.06,2.19-2.93,2.19-2.93-.68-2.93-2.19,1.06-2.11,2.93-2.11ZM404.75,41.12v18.86h-5.04v-18.86h5.04Z" fill="#383838"/><path d="M413.65,59.98h-5.04v-18.86h4.51l.53,2.26c1.75-1.55,3.94-2.64,6.62-2.64,4.02,0,6.05,2.15,6.05,6.07v13.16h-5.04v-12.3c0-1.77-.77-3.17-3.25-3.17-1.79,0-3.5,1.02-4.39,1.66v13.81Z" fill="#383838"/><path d="M442.87,41.12h5.04v18.86h-4.51l-.53-2.53h-.08c-1.83,1.81-3.86,2.9-6.54,2.9-4.02,0-6.05-2.15-6.05-6.04v-13.2h5.04v12.3c0,1.77.73,3.17,3.25,3.17,1.75,0,3.45-1.02,4.39-1.66v-13.8Z" fill="#383838"/><path d="M457.74,44.66v10.34c0,1.47.98,1.89,2.03,1.89.45,0,1.3-.04,1.79-.15v3.32c-1.1.19-2.97.3-3.9.3-4.06,0-4.96-2.11-4.96-4.9v-10.79h-2.44v-3.28l2.44-.26v-5.28h5.04v5.28h3.82v3.54h-3.82Z" fill="#383838"/><path d="M463.72,50.55c0-5.28,2.72-9.81,9.55-9.81s9.55,4.53,9.55,9.81-2.76,9.81-9.55,9.81-9.55-4.53-9.55-9.81ZM469,50.55c0,3.62.97,6.49,4.27,6.49s4.27-2.87,4.27-6.49-.98-6.49-4.27-6.49-4.27,2.9-4.27,6.49Z" fill="#383838"/><path d="M500.29,45.04c-2.07-.6-4.43-1.09-5.97-1.09-2.48,0-3.29,1.13-3.29,2,0,3.32,10.48,2.38,10.48,8.49,0,3.85-3.45,5.92-8.66,5.92-2.8,0-5.65-.3-8-.87l.81-3.43c2.68.75,4.96,1.09,6.46,1.09,2.8,0,3.5-1.32,3.5-2.15,0-3.36-10.36-2.19-10.36-8.64,0-3.62,3.37-5.62,8.53-5.62,2.8,0,4.88.34,7.23.91l-.73,3.39Z" fill="#383838"/><path d="M68.38,98.83l-6.52-15.96h2.68c.67,1.7,1.3,3.4,2.04,5.07l.28.69c1.09,2.88,2.11,5.66,3.17,8.5h.07l1.48-4.35c.39-.95.78-1.9,1.16-2.85l2.89-7.06h2.54l-9.05,22.23h-2.25l2.54-6.28h-1.02Z" fill="#383838"/><path d="M91.92,84.58v14.65h-2.36v-14.65h-2.64v-1.57l2.64-.13v-2c0-3.04,1.41-4.22,4.86-4.22.77,0,1.83.1,2.71.23l-.21,1.5c-.85-.13-1.41-.16-1.97-.16-2.33,0-3.03.79-3.03,2.81v1.83h9.69v16.35h-2.36v-14.65h-7.33ZM100.41,78.2c.99,0,1.55.36,1.55,1.14s-.56,1.21-1.55,1.21-1.52-.39-1.52-1.21.56-1.14,1.52-1.14Z" fill="#383838"/><path d="M108.38,99.22h-2.36v-16.35h2.11l.25,2.26c1.8-1.47,3.98-2.58,6.59-2.58,3.49,0,5.25,1.77,5.25,5.26v11.41h-2.36v-11.05c0-2.06-.88-3.83-3.88-3.83-2.36,0-4.51,1.44-5.6,2.29v12.59Z" fill="#383838"/><path d="M135.26,87.62c0-2.19-1.44-3.47-4.19-3.47-1.8,0-3.88.56-5.71,1.18l-.49-1.54c2.29-.72,4.51-1.24,6.55-1.24,3.52,0,6.2,1.57,6.2,5v11.67h-2.08l-.28-2.16c-2.04,1.86-3.98,2.49-6.24,2.49-2.89,0-5.18-1.44-5.18-4.05,0-3.6,3.91-5.46,11.42-5.98v-1.9ZM135.26,90.92c-5.92.33-9.05,2.03-9.05,4.25,0,1.6,1.2,2.68,3.49,2.68s4.23-1.01,5.57-2.32v-4.61Z" fill="#383838"/><path d="M144.39,99.22h-2.36v-16.35h2.11l.25,2.26c1.8-1.47,3.98-2.58,6.59-2.58,3.49,0,5.25,1.77,5.25,5.26v11.41h-2.36v-11.05c0-2.06-.88-3.83-3.88-3.83-2.36,0-4.51,1.44-5.6,2.29v12.59Z" fill="#383838"/><path d="M172.93,98.83c-1.3.39-3,.72-4.54.72-5.74,0-8.28-3.6-8.28-8.5s2.54-8.5,8.28-8.5c1.55,0,3.24.33,4.54.72l-.35,1.63c-1.37-.39-2.64-.65-3.95-.65-4.51,0-6.06,3.14-6.06,6.8s1.55,6.8,6.06,6.8c1.3,0,2.57-.26,3.95-.65l.35,1.63Z" fill="#383838"/><path d="M177.37,78.2c.99,0,1.55.36,1.55,1.14s-.56,1.21-1.55,1.21-1.52-.39-1.52-1.21.56-1.14,1.52-1.14ZM178.57,82.88v16.35h-2.36v-16.35h2.36Z" fill="#383838"/><path d="M193.62,87.62c0-2.19-1.44-3.47-4.19-3.47-1.8,0-3.88.56-5.71,1.18l-.49-1.54c2.29-.72,4.51-1.24,6.55-1.24,3.52,0,6.2,1.57,6.2,5v11.67h-2.08l-.28-2.16c-2.04,1.86-3.98,2.49-6.24,2.49-2.89,0-5.18-1.44-5.18-4.05,0-3.6,3.91-5.46,11.42-5.98v-1.9ZM193.62,90.92c-5.92.33-9.05,2.03-9.05,4.25,0,1.6,1.2,2.68,3.49,2.68s4.23-1.01,5.57-2.32v-4.61ZM189.14,81.57l-.95-1.14,4.76-3.69,1.16,1.54-4.97,3.3Z" fill="#383838"/><path d="M209.72,91.41c.07,3.63,1.58,6.44,6.69,6.44,1.87,0,3.38-.2,5-.72l.28,1.63c-2.15.62-3.73.79-5.71.79-6.31,0-8.74-3.6-8.74-8.5s2.57-8.5,8.32-8.5,6.94,3.43,6.94,6.15c0,.65-.11,1.77-.35,2.71h-12.44ZM220.08,89.81c.11-.59.18-1.21.18-1.67,0-2.09-1.37-4.09-4.72-4.09-4.23,0-5.71,2.98-5.81,5.76h10.36Z" fill="#383838"/><path d="M228.75,96.28c0,1.08.46,1.6,1.69,1.6.49,0,.88-.03,1.3-.13v1.6c-.74.1-1.55.2-2.11.2-2.92,0-3.24-1.67-3.24-3.07v-19.49h2.36v19.29Z" fill="#383838"/><path d="M247.21,99.39l-6.73-16.51h2.68l3.7,9.25,1.8,5h.07l1.76-5,3.77-9.25h2.54l-6.73,16.51h-2.85Z" fill="#383838"/><path d="M269.17,87.62c0-2.19-1.44-3.47-4.19-3.47-1.8,0-3.88.56-5.71,1.18l-.49-1.54c2.29-.72,4.51-1.24,6.55-1.24,3.52,0,6.2,1.57,6.2,5v11.67h-2.08l-.28-2.16c-2.04,1.86-3.98,2.49-6.24,2.49-2.89,0-5.18-1.44-5.18-4.05,0-3.6,3.91-5.46,11.42-5.98v-1.9ZM269.17,90.92c-5.92.33-9.05,2.03-9.05,4.25,0,1.6,1.2,2.68,3.49,2.68s4.23-1.01,5.57-2.32v-4.61Z" fill="#383838"/><path d="M278.29,96.28c0,1.08.46,1.6,1.69,1.6.49,0,.88-.03,1.3-.13v1.6c-.74.1-1.55.2-2.11.2-2.92,0-3.24-1.67-3.24-3.07v-19.49h2.36v19.29Z" fill="#383838"/><path d="M282.94,91.05c0-4.58,2.33-8.5,7.75-8.5s7.75,3.92,7.75,8.5-2.36,8.5-7.75,8.5-7.75-3.92-7.75-8.5ZM285.41,91.05c0,3.7,1.37,6.9,5.28,6.9s5.29-3.2,5.29-6.9-1.37-6.9-5.29-6.9-5.28,3.2-5.28,6.9Z" fill="#383838"/><path d="M304.69,99.22h-2.36v-16.35h2.11l.25,2.88h.07c1.62-1.9,4.02-3.2,6.59-3.2v2.09c-2.89,0-5.43,1.44-6.66,2.32v12.26Z" fill="#383838"/><path d="M332.98,97.59h-.07c-1.3,1.14-3.17,1.96-5.32,1.96-4.86,0-6.91-3.73-6.91-8.5s2.15-8.5,7.01-8.5c2.11,0,3.91.75,5.21,1.9h.07v-7.46h2.36v22.23h-2.11l-.25-1.63ZM332.98,85.95c-.81-.62-2.43-1.6-4.58-1.6-3.77,0-5.25,3.07-5.25,6.7s1.48,6.7,5.25,6.7c2.15,0,3.77-.98,4.58-1.6v-10.2Z" fill="#383838"/><path d="M341.69,91.41c.07,3.63,1.58,6.44,6.69,6.44,1.87,0,3.38-.2,5-.72l.28,1.63c-2.15.62-3.73.79-5.71.79-6.31,0-8.74-3.6-8.74-8.5s2.57-8.5,8.32-8.5,6.94,3.43,6.94,6.15c0,.65-.11,1.77-.35,2.71h-12.44ZM352.04,89.81c.11-.59.18-1.21.18-1.67,0-2.09-1.37-4.09-4.72-4.09-4.23,0-5.71,2.98-5.81,5.76h10.36Z" fill="#383838"/><path d="M369.31,84.58v11.02c0,1.77,1.06,2.29,2.29,2.29.49,0,1.23-.03,1.66-.13v1.6c-.74.1-2.01.2-2.57.2-3.17,0-3.73-1.9-3.73-3.76v-11.22h-2.64v-1.57l2.64-.13v-4.58h2.36v4.58h3.95v1.7h-3.95Z" fill="#383838"/><path d="M388.06,82.88h2.36v16.35h-2.11l-.25-2.39h-.07c-1.8,1.57-3.95,2.71-6.52,2.71-3.49,0-5.25-1.77-5.25-5.23v-11.44h2.36v11.05c0,2.09.85,3.83,3.88,3.83,2.36,0,4.47-1.41,5.6-2.26v-12.62Z" fill="#383838"/><path d="M407.33,99.39l-6.73-16.51h2.68l3.7,9.25,1.8,5h.07l1.76-5,3.77-9.25h2.54l-6.73,16.51h-2.85Z" fill="#383838"/><path d="M420.41,91.41c.07,3.63,1.58,6.44,6.69,6.44,1.87,0,3.38-.2,5-.72l.28,1.63c-2.15.62-3.73.79-5.71.79-6.31,0-8.74-3.6-8.74-8.5s2.57-8.5,8.32-8.5,6.94,3.43,6.94,6.15c0,.65-.11,1.77-.35,2.71h-12.44ZM430.77,89.81c.11-.59.18-1.21.18-1.67,0-2.09-1.37-4.09-4.72-4.09-4.23,0-5.71,2.98-5.81,5.76h10.36Z" fill="#383838"/><path d="M439.43,99.22h-2.36v-22.23h2.36v8.27h.07c1.8-1.57,3.91-2.71,6.52-2.71,3.49,0,5.25,1.77,5.25,5.26v11.41h-2.36v-11.05c0-2.06-.88-3.83-3.88-3.83-2.36,0-4.51,1.44-5.6,2.29v12.59Z" fill="#383838"/><path d="M458.04,82.88v16.35h-2.36v-16.35h2.36ZM456.74,81.57l-.95-1.14,4.76-3.69,1.13,1.54-4.93,3.3Z" fill="#383838"/><path d="M474.74,98.83c-1.3.39-3,.72-4.54.72-5.74,0-8.28-3.6-8.28-8.5s2.54-8.5,8.28-8.5c1.55,0,3.24.33,4.54.72l-.35,1.63c-1.37-.39-2.64-.65-3.95-.65-4.51,0-6.06,3.14-6.06,6.8s1.55,6.8,6.06,6.8c1.3,0,2.57-.26,3.95-.65l.35,1.63Z" fill="#383838"/><path d="M489.86,82.88h2.36v16.35h-2.11l-.25-2.39h-.07c-1.8,1.57-3.95,2.71-6.52,2.71-3.49,0-5.25-1.77-5.25-5.23v-11.44h2.36v11.05c0,2.09.85,3.83,3.88,3.83,2.36,0,4.47-1.41,5.6-2.26v-12.62Z" fill="#383838"/><path d="M498.99,96.28c0,1.08.46,1.6,1.69,1.6.49,0,.88-.03,1.3-.13v1.6c-.74.1-1.55.2-2.11.2-2.92,0-3.24-1.67-3.24-3.07v-19.49h2.36v19.29Z" fill="#383838"/><path d="M503.64,91.05c0-4.58,2.33-8.5,7.75-8.5s7.75,3.92,7.75,8.5-2.36,8.5-7.75,8.5-7.75-3.92-7.75-8.5ZM506.11,91.05c0,3.7,1.37,6.9,5.28,6.9s5.29-3.2,5.29-6.9-1.37-6.9-5.29-6.9-5.28,3.2-5.28,6.9Z" fill="#383838"/><path d="M77.61,124.15c-2.11-.59-3.91-.79-5.07-.79-3.88,0-4.86,1.83-4.86,2.91,0,3.6,9.2,2.62,9.2,7.36,0,3.24-3.14,5.17-7.68,5.17-2.25,0-4.33-.2-6.34-.69l.63-1.67c2.33.65,4.47.82,5.64.82,4.26,0,4.97-2.32,4.97-3.17,0-3.63-9.12-2.55-9.12-7.39,0-2.98,2.96-4.91,7.58-4.91,2.25,0,3.66.23,5.67.72l-.6,1.63Z" fill="#383838"/><path d="M84.7,122.12l-2.47,16.35h-2.36l2.47-16.35h2.36ZM84.2,117.45c.88,0,1.41.29,1.41.98,0,.92-.63,1.37-1.76,1.37-.85,0-1.34-.33-1.34-1.01,0-.92.63-1.34,1.69-1.34Z" fill="#383838"/><path d="M89,138.47h-2.36l2.47-16.35h2.11l-.07,2.26c2.01-1.47,4.37-2.58,6.98-2.58,3.49,0,4.97,1.77,4.44,5.26l-1.73,11.41h-2.36l1.69-11.05c.32-2.06-.32-3.83-3.31-3.83-2.36,0-4.72,1.44-5.95,2.29l-1.9,12.59Z" fill="#383838"/><path d="M125.01,138.08c-1.37.39-3.1.72-4.65.72-5,0-7.15-2.91-7.15-6.96,0-5.46,3.07-10.04,9.72-10.04,1.55,0,3.17.33,4.44.72l-.6,1.63c-1.34-.39-2.57-.65-3.88-.65-5.39,0-7.22,4.22-7.22,8.17,0,2.98,1.37,5.43,5.18,5.43,1.3,0,2.61-.26,4.05-.65l.11,1.63Z" fill="#383838"/><path d="M128.25,131.8c0-5.07,2.92-10.01,9.2-10.01,4.65,0,6.59,3.17,6.59,7,0,5.1-2.96,10.01-9.16,10.01-4.69,0-6.62-3.17-6.62-7ZM130.72,131.83c0,2.94,1.16,5.36,4.37,5.36,4.83,0,6.48-4.45,6.48-8.44,0-2.94-1.16-5.36-4.37-5.36-4.83,0-6.48,4.45-6.48,8.44Z" fill="#383838"/><path d="M151.08,124.51c2.04-1.57,4.09-2.71,6.69-2.71s4.05.95,4.4,2.98c2.57-2,4.69-2.98,7.19-2.98,3.49,0,4.97,1.77,4.44,5.26l-1.73,11.41h-2.36l1.69-11.05c.32-2.06-.32-3.83-3.31-3.83-2.22,0-4.37,1.28-5.81,2.35,0,.43-.04.95-.11,1.47l-1.69,11.05h-2.36l1.69-11.05c.32-2.06-.32-3.83-3.31-3.83-2.36,0-4.47,1.44-5.71,2.29l-1.9,12.59h-2.36l2.47-16.35h2.11l-.11,2.39h.07Z" fill="#383838"/><path d="M181.11,123.76h.07c1.45-1.14,3.45-1.96,5.6-1.96,4.09,0,5.78,2.91,5.78,6.74,0,5.43-2.78,10.27-8.46,10.27-2.11,0-3.8-.75-4.93-1.9h-.07l-1.13,7.46h-2.36l3.38-22.24h2.11v1.63ZM179.34,135.4c.71.62,2.18,1.6,4.33,1.6,4.54,0,6.38-4.09,6.38-8.14,0-2.91-1.2-5.26-4.37-5.26-2.15,0-3.91.98-4.83,1.6l-1.52,10.2Z" fill="#383838"/><path d="M197.84,135.53c-.18,1.08.21,1.6,1.45,1.6.49,0,.88-.03,1.34-.13l-.25,1.6c-.78.1-1.59.2-2.15.2-2.92,0-2.99-1.67-2.78-3.07l2.96-19.49h2.36l-2.92,19.29Z" fill="#383838"/><path d="M207.85,122.12l-2.47,16.35h-2.36l2.47-16.35h2.36ZM207.36,117.45c.88,0,1.41.29,1.41.98,0,.92-.63,1.37-1.76,1.37-.85,0-1.34-.33-1.34-1.01,0-.92.63-1.34,1.69-1.34Z" fill="#383838"/><path d="M222.16,138.08c-1.37.39-3.1.72-4.65.72-5,0-7.15-2.91-7.15-6.96,0-5.46,3.07-10.04,9.72-10.04,1.55,0,3.17.33,4.44.72l-.6,1.63c-1.34-.39-2.57-.65-3.88-.65-5.39,0-7.22,4.22-7.22,8.17,0,2.98,1.37,5.43,5.18,5.43,1.3,0,2.61-.26,4.05-.65l.11,1.63Z" fill="#383838"/><path d="M236.85,136.84h-.07c-1.48,1.14-3.49,1.96-5.64,1.96-4.09,0-5.78-2.98-5.78-6.8,0-5.56,3.17-10.2,9.69-10.2,2.5,0,4.69.56,6.24,1.31l-2.33,15.37h-2.11v-1.63ZM232.24,137c2.15,0,3.91-.98,4.83-1.6l1.69-11.15c-1.13-.56-2.47-.85-3.88-.85-4.93,0-7.01,3.92-7.01,8.31,0,2.94,1.23,5.3,4.37,5.3Z" fill="#383838"/><path d="M255.74,138.08c-1.37.39-3.1.72-4.65.72-5,0-7.15-2.91-7.15-6.96,0-5.46,3.07-10.04,9.72-10.04,1.55,0,3.17.33,4.44.72l-.6,1.63c-1.34-.39-2.57-.65-3.88-.65-5.39,0-7.22,4.22-7.22,8.17,0,2.98,1.37,5.43,5.18,5.43,1.3,0,2.61-.26,4.05-.65l.11,1.63Z" fill="#383838"/><path d="M263.77,122.12l-2.47,16.35h-2.36l2.47-16.35h2.36ZM263.28,117.45c.88,0,1.41.29,1.41.98,0,.92-.63,1.37-1.76,1.37-.85,0-1.34-.33-1.34-1.01,0-.92.63-1.34,1.69-1.34Z" fill="#383838"/><path d="M266.28,131.8c0-5.07,2.92-10.01,9.2-10.01,4.65,0,6.59,3.17,6.59,7,0,5.1-2.96,10.01-9.16,10.01-4.69,0-6.62-3.17-6.62-7ZM268.74,131.83c0,2.94,1.16,5.36,4.37,5.36,4.83,0,6.48-4.45,6.48-8.44,0-2.94-1.16-5.36-4.37-5.36-4.83,0-6.48,4.45-6.48,8.44Z" fill="#383838"/><path d="M286.93,138.47h-2.36l2.47-16.35h2.11l-.07,2.26c2.01-1.47,4.37-2.58,6.98-2.58,3.49,0,4.97,1.77,4.44,5.26l-1.73,11.41h-2.36l1.69-11.05c.32-2.06-.32-3.83-3.31-3.83-2.36,0-4.72,1.44-5.95,2.29l-1.9,12.59Z" fill="#383838"/><path d="M306.2,132.19c.11,2.16.95,4.91,5.57,4.91,2.11,0,3.66-.2,5.32-.72l.07,1.63c-2.25.62-3.88.79-5.85.79-6.1,0-7.58-3.6-7.58-6.96,0-5.33,2.99-10.04,9.76-10.04,4.09,0,6.1,2.03,6.1,4.19,0,1.67-.6,5.49-13.39,6.21ZM306.31,130.59c10.64-.65,11.06-3.33,11.06-4.41,0-1.44-1.23-2.88-4.16-2.88-4.97,0-6.69,3.53-6.91,7.29Z" fill="#383838"/><path d="M335.73,124.15c-2.11-.59-3.91-.79-5.07-.79-3.88,0-4.86,1.83-4.86,2.91,0,3.6,9.2,2.62,9.2,7.36,0,3.24-3.14,5.17-7.68,5.17-2.25,0-4.33-.2-6.34-.69l.63-1.67c2.33.65,4.47.82,5.64.82,4.26,0,4.97-2.32,4.97-3.17,0-3.63-9.12-2.55-9.12-7.39,0-2.98,2.96-4.91,7.58-4.91,2.25,0,3.66.23,5.67.72l-.6,1.63Z" fill="#383838"/><path d="M339.33,136.05c.88,0,1.41.42,1.41,1.14,0,.85-.74,1.5-1.8,1.5-.88,0-1.41-.49-1.41-1.18,0-.88.7-1.47,1.8-1.47Z" fill="#383838"/></g></svg>