<?xml version="1.0" encoding="UTF-8"?><svg id="b" xmlns="http://www.w3.org/2000/svg" viewBox="0 0 750.32 343.06"><g id="c"><path d="M42.89,26.67c-7.2-1.94-13.32-2.64-17.59-2.64-3.52,0-5.78.93-5.78,3.27,0,6.53,28.4,2.49,28.4,21.69,0,12.05-10.22,17.11-22.95,17.11-6.79,0-14.07-.39-22.95-2.64l2.26-12.36c8.38,1.94,15.67,2.72,19.94,2.72,3.52,0,7.04-1.01,7.04-3.65,0-6.61-28.4-3.11-28.4-22.86,0-11.28,10.22-15.63,22.12-15.63,6.87,0,12.82.7,21.36,3.03l-3.43,11.98Z" fill="#fff"/><path d="M59.57,10.89c5.36,0,8.46,1.71,8.46,5.99s-3.1,6.14-8.46,6.14-8.38-1.87-8.38-6.14,3.1-5.99,8.38-5.99ZM67.19,26.44v38.88h-15.16V26.44h15.16Z" fill="#fff"/><path d="M124.32,64.15c-4.19,1.17-8.71,1.94-13.15,1.94-14.16,0-22.2-7.85-22.2-20.22s8.04-20.22,22.2-20.22c4.44,0,8.96.78,13.15,1.94l-2.01,10.19c-4.1-1.17-6.28-1.55-9.3-1.55-5.45,0-8.13,3.73-8.13,9.64s2.68,9.64,8.13,9.64c3.02,0,5.19-.39,9.3-1.56l2.01,10.19Z" fill="#fff"/><path d="M125.08,45.88c0-10.89,5.78-20.22,20.94-20.22s20.94,9.33,20.94,20.22-5.86,20.22-20.94,20.22-20.94-9.33-20.94-20.22ZM141,45.88c0,6.14.67,10.34,5.03,10.34s5.03-4.2,5.03-10.34-.67-10.34-5.03-10.34-5.03,4.2-5.03,10.34Z" fill="#fff"/><path d="M186.32,30.33h.17c2.09-2.72,6.2-4.67,9.88-4.67,11.14,0,15.67,9.41,15.67,20.22s-6.62,20.22-21.86,20.22c-7.62,0-14.16-1.48-19.02-3.11V12.44h15.16v17.88ZM186.32,55.6c1.26.47,2.43.62,3.52.62,4.27,0,6.28-2.96,6.28-9.64s-2.09-9.64-5.7-9.64c-1.84,0-3.43.78-4.1,1.32v17.34Z" fill="#fff"/><path d="M231.39,65.32h-15.16V26.44h13.66l1.51,8.16h.17c1.84-5.83,7.21-8.94,12.15-8.94v13.37c-5.61,0-10.14.86-12.31,1.79v24.49Z" fill="#fff"/><path d="M266.07,39.19c0-2.41-1.93-3.97-5.19-3.97-3.52,0-8.46,1.17-12.82,3.03l-3.1-9.49c8.13-2.57,12.98-3.11,18.43-3.11,10.72,0,17.84,4.9,17.84,13.06v26.59h-13.57l-1.59-3.97c-3.35,3.42-7.54,4.74-11.64,4.74-6.95,0-11.56-3.89-11.56-10.11,0-9.33,9.47-14.07,23.2-15.01v-1.79ZM266.07,47.9c-4.78.47-7.71,2.25-7.71,4.74,0,2.18,1.93,2.88,3.52,2.88,1.51,0,3.02-.54,4.19-1.48v-6.14ZM262.97,23.33l-4.02-5.83,13.74-8.63,4.86,8.01-14.58,6.45Z" fill="#fff"/><path d="M318.77,37.79c-3.27-1.17-8.96-2.57-12.4-2.57-1.76,0-3.1.62-3.1,1.87,0,4.04,18.6,3.34,18.6,15.79,0,8.79-7.79,13.22-19.27,13.22-6.12,0-12.9-.7-17.59-1.87l2.35-10.34c5.44,1.63,9.72,2.72,12.98,2.72,2.43,0,3.69-.93,3.69-2.1,0-4.12-18.18-2.88-18.18-16.17,0-8.4,7.71-12.67,18.85-12.67,6.12,0,11.39.78,16.08,1.94l-2.01,10.19Z" fill="#fff"/><path d="M360.24,37.01v16.41c0,1.79,1.68,2.41,3.02,2.41.67,0,2.43-.08,3.35-.31v9.88c-2.76.39-7.54.7-9.88.7-9.3,0-11.64-4.28-11.64-11.28v-17.81h-3.77v-9.88l3.77-.7v-10.89h15.16v10.89h6.37v10.58h-6.37Z" fill="#fff"/><path d="M394.25,26.44h15.16v38.88h-13.66l-1.51-4.67h-.17c-3.1,3.5-6.62,5.44-11.56,5.44-8.21,0-12.4-4.74-12.4-12.52v-27.14h15.16v24.42c0,2.41,1.09,3.97,4.19,3.97,1.76,0,3.6-.78,4.77-1.4v-26.98Z" fill="#fff"/><path d="M464.54,37.79c-3.27-1.17-8.96-2.57-12.4-2.57-1.76,0-3.1.62-3.1,1.87,0,4.04,18.6,3.34,18.6,15.79,0,8.79-7.79,13.22-19.27,13.22-6.12,0-12.9-.7-17.59-1.87l2.34-10.34c5.45,1.63,9.72,2.72,12.99,2.72,2.43,0,3.69-.93,3.69-2.1,0-4.12-18.18-2.88-18.18-16.17,0-8.4,7.71-12.67,18.85-12.67,6.12,0,11.39.78,16.08,1.94l-2.01,10.19Z" fill="#fff"/><path d="M495.54,26.44h15.16v38.88h-13.66l-1.51-4.67h-.17c-3.1,3.5-6.62,5.44-11.56,5.44-8.21,0-12.4-4.74-12.4-12.52v-27.14h15.16v24.42c0,2.41,1.09,3.97,4.19,3.97,1.76,0,3.6-.78,4.77-1.4v-26.98Z" fill="#fff"/><path d="M530.81,48.76c.5,3.5,3.02,6.77,10.89,6.77,3.27,0,7.54-.62,11.06-1.94l1.51,9.95c-6.12,2.18-12.4,2.57-15.58,2.57-16.5,0-23.79-8.55-23.79-20.22s8.38-20.22,22.53-20.22c12.48,0,19.27,6.53,19.27,15.78,0,2.18-.33,4.9-.84,7.31h-25.05ZM542.03,41.06c.17-.78.25-1.4.25-1.94,0-2.1-1.42-4.28-5.19-4.28-4.19,0-6.28,3.11-6.28,6.22h11.23Z" fill="#fff"/><path d="M576.05,53.65c0,1.55.75,2.18,2.09,2.18.67,0,1.59-.08,2.51-.31v9.88c-2.76.39-5.95.7-8.29.7-9.21,0-11.48-4.2-11.48-11.04V12.44h15.16v41.21Z" fill="#fff"/><path d="M607.3,61.43h-.17c-2.09,2.72-6.2,4.67-9.88,4.67-11.14,0-15.67-9.41-15.67-20.22s5.36-20.22,16.59-20.22c3.27,0,6.87,1.55,8.96,4.28h.17V12.44h15.16v52.88h-13.66l-1.51-3.89ZM607.3,38.26c-.67-.54-2.26-1.32-4.1-1.32-3.6,0-5.7,3.11-5.7,8.94s2.09,8.94,5.7,8.94c1.84,0,3.43-.78,4.1-1.32v-15.24Z" fill="#fff"/><path d="M626.65,45.88c0-10.89,5.78-20.22,20.94-20.22s20.94,9.33,20.94,20.22-5.86,20.22-20.94,20.22-20.94-9.33-20.94-20.22ZM642.57,45.88c0,6.14.67,10.34,5.03,10.34s5.03-4.2,5.03-10.34-.67-10.34-5.03-10.34-5.03,4.2-5.03,10.34Z" fill="#fff"/><path d="M697.25,53.36c.23,4.04,2.38,7.43,9.28,7.43,2.67,0,5.4-.32,7.89-1.29l.81,4.79c-3.89,1.29-7.37,1.56-10.09,1.56-10.91,0-15.43-5.92-15.43-14s5.05-14,14.68-14c8.82,0,12.36,5.06,12.36,10.5,0,1.35-.17,3.45-.58,5.01h-18.91ZM709.72,49c.17-.97.17-1.67.17-2.15,0-1.99-1.62-4.58-5.69-4.58-4.93,0-6.96,3.77-6.96,6.73h12.47Z" fill="#fff"/><path d="M728.58,65.32h-7.19v-26.92h6.44l.75,3.23c2.49-2.21,5.63-3.77,9.46-3.77,5.74,0,8.64,3.07,8.64,8.67v18.79h-7.19v-17.55c0-2.53-1.1-4.52-4.64-4.52-2.55,0-4.99,1.45-6.27,2.37v19.71Z" fill="#fff"/><path d="M54.74,124.96c7.31,2.4,14.05,7.3,14.05,16.69,0,12.52-10.12,20.13-27.2,20.13H5.06v-70.94h34.28c17.08,0,26.3,6.57,26.3,18.67,0,7.3-4.61,12.62-10.9,15.23v.21ZM37.65,116.83c4.27,0,6.52-.94,6.52-4.49s-2.25-4.49-6.52-4.49h-10.23v8.97h10.23ZM27.42,133.83v10.95h11.46c4.27,0,7.53-.94,7.53-5.42s-3.26-5.53-7.76-5.53h-11.24Z" fill="#5bd26f"/><path d="M102.51,126.74c0-3.23-2.58-5.32-6.97-5.32-4.72,0-11.35,1.56-17.2,4.07l-4.16-12.73c10.9-3.44,17.42-4.17,24.73-4.17,14.39,0,23.94,6.57,23.94,17.53v35.68h-18.21l-2.14-5.32c-4.5,4.59-10.12,6.36-15.62,6.36-9.33,0-15.51-5.22-15.51-13.56,0-12.52,12.7-18.88,31.13-20.13v-2.4ZM102.51,138.42c-6.41.63-10.34,3.03-10.34,6.36,0,2.92,2.58,3.86,4.72,3.86,2.02,0,4.05-.73,5.62-1.98v-8.24Z" fill="#5bd26f"/><path d="M150.5,161.79h-20.34v-52.16h18.32l2.02,6.05c4.38-4.59,8.99-7.09,15.74-7.09,11.02,0,16.63,6.36,16.63,16.8v36.41h-20.34v-32.76c0-3.13-1.46-5.32-5.62-5.32-2.36,0-4.83,1.15-6.41,1.98v36.1Z" fill="#5bd26f"/><path d="M235.92,160.22c-5.62,1.56-11.69,2.61-17.65,2.61-19,0-29.79-10.54-29.79-27.12s10.79-27.12,29.79-27.12c5.96,0,12.03,1.04,17.65,2.61l-2.7,13.67c-5.51-1.56-8.43-2.09-12.48-2.09-7.31,0-10.9,5.01-10.9,12.94s3.6,12.94,10.9,12.94c4.05,0,6.97-.52,12.48-2.09l2.7,13.67Z" fill="#5bd26f"/><path d="M236.93,135.71c0-14.61,7.76-27.12,28.1-27.12s28.1,12.52,28.1,27.12-7.87,27.12-28.1,27.12-28.1-12.52-28.1-27.12ZM258.28,135.71c0,8.24.9,13.88,6.74,13.88s6.74-5.63,6.74-13.88-.9-13.88-6.74-13.88-6.74,5.63-6.74,13.88Z" fill="#5bd26f"/><path d="M376.75,107.85h-30.91v10.95h25.74v17h-25.74v25.98h-22.37v-70.94h53.28v17Z" fill="#5bd26f"/><path d="M377.08,135.71c0-14.61,7.76-27.12,28.1-27.12s28.1,12.52,28.1,27.12-7.87,27.12-28.1,27.12-28.1-12.52-28.1-27.12ZM398.44,135.71c0,8.24.9,13.88,6.74,13.88s6.74-5.63,6.74-13.88-.9-13.88-6.74-13.88-6.74,5.63-6.74,13.88Z" fill="#5bd26f"/><path d="M459.24,161.79h-20.34v-52.16h18.32l2.02,10.95h.22c2.47-7.82,9.67-12,16.3-12v17.94c-7.53,0-13.6,1.15-16.52,2.4v32.86Z" fill="#5bd26f"/><path d="M500.27,115.89c4.16-4.69,8.66-7.3,15.4-7.3s11.8,2.5,14.39,7.93c5.73-5.74,11.69-7.93,17.87-7.93,11.01,0,16.63,6.36,16.63,16.8v36.41h-20.34v-32.76c0-3.13-1.46-5.32-5.62-5.32-2.02,0-4.38.83-6.41,1.88.11,1.15.11,2.3.11,3.44v32.76h-20.34v-32.76c0-3.13-1.46-5.32-5.62-5.32-2.36,0-4.72,1.15-6.29,1.98v36.1h-20.34v-52.16h18.32l2.02,6.26h.22Z" fill="#5bd26f"/><path d="M570.18,135.71c0-14.61,7.76-27.12,28.1-27.12s28.1,12.52,28.1,27.12-7.87,27.12-28.1,27.12-28.1-12.52-28.1-27.12ZM591.53,135.71c0,8.24.9,13.88,6.74,13.88s6.74-5.63,6.74-13.88-.9-13.88-6.74-13.88-6.74,5.63-6.74,13.88Z" fill="#5bd26f"/><path d="M673.92,124.86c-4.38-1.56-12.03-3.44-16.63-3.44-2.36,0-4.16.83-4.16,2.5,0,5.42,24.95,4.49,24.95,21.18,0,11.79-10.45,17.74-25.85,17.74-8.21,0-17.31-.94-23.6-2.5l3.15-13.88c7.31,2.19,13.04,3.65,17.42,3.65,3.26,0,4.95-1.25,4.95-2.82,0-5.53-24.39-3.86-24.39-21.7,0-11.27,10.34-17,25.29-17,8.21,0,15.29,1.04,21.58,2.61l-2.7,13.67Z" fill="#5bd26f"/><path d="M712.58,126.74c0-3.23-2.58-5.32-6.97-5.32-4.72,0-11.35,1.56-17.2,4.07l-4.16-12.73c10.9-3.44,17.42-4.17,24.73-4.17,14.39,0,23.94,6.57,23.94,17.53v35.68h-18.21l-2.14-5.32c-4.5,4.59-10.12,6.36-15.62,6.36-9.33,0-15.51-5.22-15.51-13.56,0-12.52,12.7-18.88,31.13-20.13v-2.4ZM712.58,138.42c-6.41.63-10.34,3.03-10.34,6.36,0,2.92,2.58,3.86,4.72,3.86,2.02,0,4.05-.73,5.62-1.98v-8.24Z" fill="#5bd26f"/><path d="M738.37,166.64c1.57-3.45,2.09-7.16,2.09-10.66h7.19c-.06,3.77-.87,7.75-4.53,11.74l-4.76-1.08Z" fill="#fff"/><path d="M28.89,208.13c0-3.92-2.76-6.16-7.85-6.16-3.97,0-9.14,1.2-13.62,2.96l-2.16-6.8c6.98-2.16,12.16-3.12,17.42-3.12,9.92,0,16.9,4.4,16.9,12.81v28.01h-9.66l-1.04-4.32c-4.22,3.92-8.28,5.12-13.19,5.12-7.24,0-12.68-4-12.68-10.4,0-9.6,9.23-13.53,25.87-14.97v-3.12ZM28.89,216.94c-9.48.72-15.09,3.36-15.09,7.36,0,3.12,2.33,4.8,5.86,4.8s7.16-1.6,9.23-3.68v-8.48Z" fill="#fff"/><path d="M80.36,234.7c-3.71,1.12-8.11,1.92-12.33,1.92-14.31,0-21.56-8.48-21.56-20.81s7.24-20.81,21.56-20.81c4.23,0,8.62.8,12.33,1.92l-1.55,7.2c-3.71-1.04-6.47-1.6-9.48-1.6-8.36,0-11.64,5.76-11.64,13.29s3.28,13.29,11.64,13.29c3.02,0,5.78-.56,9.48-1.6l1.55,7.2Z" fill="#fff"/><path d="M117.35,234.7c-3.71,1.12-8.11,1.92-12.33,1.92-14.31,0-21.56-8.48-21.56-20.81s7.24-20.81,21.56-20.81c4.23,0,8.62.8,12.33,1.92l-1.55,7.2c-3.71-1.04-6.47-1.6-9.48-1.6-8.36,0-11.64,5.76-11.64,13.29s3.28,13.29,11.64,13.29c3.02,0,5.78-.56,9.48-1.6l1.55,7.2Z" fill="#fff"/><path d="M131.66,218.06c.35,6,3.54,11.04,13.8,11.04,3.97,0,8.02-.48,11.73-1.92l1.21,7.12c-5.78,1.92-10.95,2.32-15,2.32-16.21,0-22.94-8.8-22.94-20.81s7.5-20.81,21.82-20.81c13.11,0,18.37,7.52,18.37,15.61,0,2-.26,5.12-.86,7.44h-28.11ZM150.2,211.57c.26-1.44.26-2.48.26-3.2,0-2.96-2.41-6.8-8.45-6.8-7.33,0-10.35,5.6-10.35,10h18.54Z" fill="#fff"/><path d="M193.82,231.82h-.17c-2.67,2.8-7.07,4.8-11.55,4.8-11.81,0-16.56-9.36-16.56-20.81s5.43-20.81,17.16-20.81c4.14,0,8.28,1.68,10.95,4.48h.17v-18.09h10.69v54.42h-9.57l-1.12-4ZM193.82,205.73c-1.38-1.04-4.14-2.72-7.76-2.72-6.47,0-9.31,5.36-9.31,12.81s2.85,12.81,9.31,12.81c3.62,0,6.38-1.6,7.76-2.64v-20.25Z" fill="#fff"/><path d="M222.62,218.06c.35,6,3.54,11.04,13.8,11.04,3.97,0,8.02-.48,11.73-1.92l1.21,7.12c-5.78,1.92-10.95,2.32-15,2.32-16.21,0-22.94-8.8-22.94-20.81s7.5-20.81,21.82-20.81c13.11,0,18.37,7.52,18.37,15.61,0,2-.26,5.12-.86,7.44h-28.11ZM241.16,211.57c.26-1.44.26-2.48.26-3.2,0-2.96-2.41-6.8-8.45-6.8-7.33,0-10.35,5.6-10.35,10h18.54ZM232.97,192.61l-3.62-4.64,12.76-9.12,4.48,6.4-13.62,7.36Z" fill="#fff"/><path d="M301.17,208.13c0-3.92-2.76-6.16-7.85-6.16-3.97,0-9.14,1.2-13.62,2.96l-2.16-6.8c6.98-2.16,12.16-3.12,17.42-3.12,9.92,0,16.9,4.4,16.9,12.81v28.01h-9.66l-1.04-4.32c-4.22,3.92-8.28,5.12-13.19,5.12-7.24,0-12.68-4-12.68-10.4,0-9.6,9.23-13.53,25.87-14.97v-3.12ZM301.17,216.94c-9.48.72-15.09,3.36-15.09,7.36,0,3.12,2.33,4.8,5.86,4.8s7.16-1.6,9.23-3.68v-8.48Z" fill="#fff"/><path d="M330.74,226.22c0,2.16.86,3.04,3.1,3.04.95,0,1.9-.08,2.93-.32v7.04c-2.33.4-4.91.64-6.9.64-8.28,0-9.83-4.16-9.83-9.44v-45.78h10.69v44.82Z" fill="#fff"/><path d="M392.52,234.66c-4.19,1.17-8.71,1.94-13.15,1.94-14.16,0-22.2-7.85-22.2-20.22s8.04-20.22,22.2-20.22c4.44,0,8.96.78,13.15,1.94l-2.01,10.19c-4.1-1.17-6.28-1.56-9.3-1.56-5.45,0-8.13,3.73-8.13,9.64s2.68,9.64,8.13,9.64c3.02,0,5.19-.39,9.3-1.55l2.01,10.19Z" fill="#fff"/><path d="M410.96,235.82h-15.16v-38.88h13.66l1.51,8.16h.17c1.84-5.83,7.2-8.94,12.15-8.94v13.38c-5.61,0-10.14.85-12.31,1.79v24.49Z" fill="#fff"/><path d="M440.45,219.26c.5,3.5,3.02,6.76,10.89,6.76,3.27,0,7.54-.62,11.06-1.94l1.51,9.95c-6.12,2.18-12.4,2.57-15.58,2.57-16.5,0-23.79-8.55-23.79-20.22s8.38-20.22,22.53-20.22c12.48,0,19.27,6.53,19.27,15.79,0,2.18-.33,4.9-.84,7.31h-25.05ZM451.67,211.56c.17-.78.25-1.4.25-1.94,0-2.1-1.42-4.28-5.19-4.28-4.19,0-6.28,3.11-6.28,6.22h11.23ZM447.32,193.83l-4.02-5.83,13.74-8.63,4.86,8.01-14.58,6.45Z" fill="#fff"/><path d="M494.82,231.94h-.17c-2.09,2.72-6.2,4.67-9.88,4.67-11.14,0-15.67-9.41-15.67-20.22s5.36-20.22,16.59-20.22c3.27,0,6.87,1.56,8.96,4.28h.17v-17.5h15.16v52.88h-13.66l-1.51-3.89ZM494.82,208.76c-.67-.54-2.26-1.32-4.1-1.32-3.6,0-5.7,3.11-5.7,8.94s2.09,8.94,5.7,8.94c1.84,0,3.43-.78,4.1-1.32v-15.24Z" fill="#fff"/><path d="M522.97,181.39c5.36,0,8.46,1.71,8.46,5.99s-3.1,6.14-8.46,6.14-8.38-1.87-8.38-6.14,3.1-5.99,8.38-5.99ZM530.59,196.95v38.88h-15.16v-38.88h15.16Z" fill="#fff"/><path d="M552.62,207.52v16.41c0,1.79,1.68,2.41,3.02,2.41.67,0,2.43-.08,3.35-.31v9.88c-2.76.39-7.54.7-9.88.7-9.3,0-11.64-4.28-11.64-11.27v-17.81h-3.77v-9.88l3.77-.7v-10.89h15.16v10.89h6.37v10.58h-6.37Z" fill="#fff"/><path d="M561.67,216.39c0-10.89,5.78-20.22,20.94-20.22s20.94,9.33,20.94,20.22-5.86,20.22-20.94,20.22-20.94-9.33-20.94-20.22ZM577.59,216.39c0,6.14.67,10.34,5.03,10.34s5.03-4.2,5.03-10.34-.67-10.34-5.03-10.34-5.03,4.2-5.03,10.34Z" fill="#fff"/><path d="M10.47,271.13c5.36,0,8.46,1.71,8.46,5.99s-3.1,6.14-8.46,6.14-8.38-1.87-8.38-6.14,3.1-5.99,8.38-5.99ZM18.09,286.69v38.88H2.93v-38.88h15.16Z" fill="#fff"/><path d="M38.7,325.56h-15.16v-38.88h13.66l1.51,4.51c3.27-3.42,6.7-5.29,11.73-5.29,8.21,0,12.4,4.74,12.4,12.52v27.14h-15.16v-24.42c0-2.33-1.09-3.97-4.19-3.97-1.76,0-3.6.86-4.77,1.48v26.9Z" fill="#fff"/><path d="M83.61,291.35c3.1-3.5,6.45-5.44,11.48-5.44s8.8,1.87,10.72,5.91c4.27-4.28,8.71-5.91,13.32-5.91,8.21,0,12.4,4.74,12.4,12.52v27.14h-15.16v-24.42c0-2.33-1.09-3.97-4.19-3.97-1.51,0-3.27.62-4.78,1.4.08.86.08,1.71.08,2.57v24.42h-15.16v-24.42c0-2.33-1.09-3.97-4.19-3.97-1.76,0-3.52.86-4.69,1.48v26.9h-15.16v-38.88h13.66l1.51,4.67h.17Z" fill="#fff"/><path d="M151.64,309c.5,3.5,3.02,6.76,10.89,6.76,3.27,0,7.54-.62,11.06-1.94l1.51,9.95c-6.12,2.18-12.4,2.57-15.58,2.57-16.5,0-23.79-8.55-23.79-20.22s8.38-20.22,22.53-20.22c12.48,0,19.27,6.53,19.27,15.79,0,2.18-.33,4.9-.84,7.31h-25.05ZM162.86,301.3c.17-.78.25-1.4.25-1.94,0-2.1-1.42-4.28-5.19-4.28-4.19,0-6.28,3.11-6.28,6.22h11.23Z" fill="#fff"/><path d="M206.01,321.68h-.17c-2.09,2.72-6.2,4.67-9.88,4.67-11.14,0-15.67-9.41-15.67-20.22s5.36-20.22,16.59-20.22c3.27,0,6.87,1.56,8.96,4.28h.17v-17.5h15.16v52.88h-13.66l-1.51-3.89ZM206.01,298.5c-.67-.54-2.26-1.32-4.1-1.32-3.6,0-5.7,3.11-5.7,8.94s2.09,8.94,5.7,8.94c1.84,0,3.43-.78,4.1-1.32v-15.24Z" fill="#fff"/><path d="M234.16,271.13c5.36,0,8.46,1.71,8.46,5.99s-3.1,6.14-8.46,6.14-8.38-1.87-8.38-6.14,3.1-5.99,8.38-5.99ZM241.78,286.69v38.88h-15.16v-38.88h15.16Z" fill="#fff"/><path d="M268.76,299.44c0-2.41-1.93-3.97-5.19-3.97-3.52,0-8.46,1.17-12.82,3.03l-3.1-9.49c8.13-2.57,12.98-3.11,18.43-3.11,10.72,0,17.84,4.9,17.84,13.06v26.59h-13.57l-1.59-3.97c-3.35,3.42-7.54,4.74-11.64,4.74-6.95,0-11.56-3.89-11.56-10.11,0-9.33,9.47-14.07,23.2-15.01v-1.79ZM268.76,308.15c-4.77.47-7.71,2.25-7.71,4.74,0,2.18,1.93,2.88,3.52,2.88,1.51,0,3.02-.54,4.19-1.48v-6.14Z" fill="#fff"/><path d="M305.95,297.26v16.41c0,1.79,1.68,2.41,3.02,2.41.67,0,2.43-.08,3.35-.31v9.88c-2.76.39-7.54.7-9.88.7-9.3,0-11.64-4.28-11.64-11.27v-17.81h-3.77v-9.88l3.77-.7v-10.89h15.16v10.89h6.37v10.58h-6.37Z" fill="#fff"/><path d="M315,306.13c0-10.89,5.78-20.22,20.94-20.22s20.94,9.33,20.94,20.22-5.86,20.22-20.94,20.22-20.94-9.33-20.94-20.22ZM330.92,306.13c0,6.14.67,10.34,5.03,10.34s5.03-4.2,5.03-10.34-.67-10.34-5.03-10.34-5.03,4.2-5.03,10.34Z" fill="#fff"/></g></svg>